<svg width="2081" height="397" viewBox="0 0 2081 397" fill="none" xmlns="http://www.w3.org/2000/svg">
<path d="M188.278 198.458C188.278 221.283 169.764 239.786 146.926 239.786C124.088 239.786 105.574 221.283 105.574 198.458C105.574 175.634 124.088 157.131 146.926 157.131C169.764 157.131 188.278 175.634 188.278 198.458Z" fill="black"/>
<path d="M147.298 22.2798C224.785 22.2798 262.45 84.2148 271.672 112.742L271.728 112.914L271.599 113.039C258.473 125.877 233.352 143.366 201.664 153.866C192.016 141.959 178.557 133.265 163.143 129.642C181.092 123.033 193.893 105.781 193.893 85.5384C193.893 59.5902 172.857 38.555 146.909 38.5549C120.961 38.5551 99.9254 59.5902 99.9253 85.5384C99.9253 105.804 112.756 123.073 130.737 129.665C115.351 133.304 101.92 141.997 92.2908 153.894C58.4319 142.249 36.1919 122.409 22.4548 113.072L22.2793 112.952L22.3396 112.749C31.5628 81.6242 66.0335 22.2798 147.298 22.2798Z" fill="black"/>
<path d="M93.7341 244.052C99.9744 251.279 107.661 257.222 116.344 261.432C106.293 270.049 99.9254 282.838 99.9253 297.115C99.9253 323.064 120.96 344.099 146.909 344.099C172.857 344.099 193.893 323.064 193.893 297.115C193.893 282.866 187.549 270.098 177.531 261.481C186.007 257.389 193.536 251.646 199.702 244.67C242.392 263.706 264.839 303.183 271.672 324.319L271.728 324.491L271.599 324.616C251.604 344.173 203.775 374.521 147.298 374.521C80.9239 374.521 42.572 338.322 22.4548 324.649L22.2793 324.529L22.3396 324.326C29.2021 301.168 50.0419 262.387 93.7341 244.052Z" fill="black"/>
<path d="M365.407 178.724V51.0243H422.154C435.749 51.0243 445.975 54.1201 452.832 60.3116C459.571 66.3841 462.94 74.3616 462.94 84.2442C462.94 96.7463 456.32 105.26 443.079 109.784V110.32C450.172 112.463 455.847 116.333 460.103 121.929C464.477 127.525 466.664 134.193 466.664 141.932C466.664 153.244 462.94 162.114 455.492 168.544C447.808 175.331 437.168 178.724 423.572 178.724H365.407ZM391.12 121.572V157.292H420.735C426.882 157.292 431.73 155.744 435.276 152.648C438.823 149.434 440.596 145.207 440.596 139.968C440.596 134.133 438.646 129.609 434.744 126.394C430.961 123.179 426.055 121.572 420.026 121.572H391.12ZM391.12 102.462H418.962C424.636 102.462 429.188 101.152 432.616 98.5323C436.045 95.7937 437.759 91.9836 437.759 87.1018C437.759 82.3391 436.104 78.648 432.794 76.0285C429.602 73.409 425.168 72.0993 419.494 72.0993H391.12V102.462Z" fill="black"/>
<path d="M530.726 180.867C514.411 180.867 501.998 177.176 493.486 169.794C484.974 162.293 480.718 151.577 480.718 137.646V51.0243H506.431V137.646C506.431 152.648 514.352 160.15 530.194 160.15C538.114 160.15 544.085 158.066 548.104 153.899C552.124 149.731 554.134 144.195 554.134 137.289V51.0243H579.847V137.646C579.847 151.458 575.65 162.114 567.256 169.616C558.981 177.117 546.804 180.867 530.726 180.867Z" fill="black"/>
<path d="M598.33 178.724V51.0243H656.495C668.672 51.0243 678.484 54.2987 685.932 60.8474C693.498 67.3961 697.281 75.969 697.281 86.566C697.281 102.878 689.538 113.178 674.051 117.464V118C680.08 119.786 684.572 122.643 687.528 126.573C690.602 130.383 692.552 136.098 693.38 143.718C693.616 146.576 693.853 149.969 694.089 153.899C694.444 157.709 694.68 160.745 694.799 163.007C695.035 165.27 695.272 167.532 695.508 169.794C695.863 172.057 696.276 173.843 696.749 175.152C697.34 176.343 698.05 177.117 698.877 177.474V178.724H674.228C673.755 178.486 673.341 178.069 672.987 177.474C672.632 176.76 672.337 175.807 672.1 174.616C671.864 173.426 671.627 172.235 671.391 171.044C671.272 169.735 671.095 168.127 670.859 166.222C670.741 164.198 670.622 162.472 670.504 161.043C670.386 159.495 670.208 157.53 669.972 155.149C669.854 152.648 669.736 150.684 669.617 149.255C668.553 134.729 660.278 127.466 644.791 127.466H624.043V178.724H598.33ZM624.043 71.9207V107.462H651.352C658.091 107.462 663.233 105.855 666.78 102.64C670.445 99.4253 672.277 95.1984 672.277 89.9594C672.277 84.6014 670.563 80.2554 667.135 76.9215C663.706 73.5876 658.682 71.9207 652.061 71.9207H624.043Z" fill="black"/>
<path d="M713.838 178.724V51.0243H807.115V72.8137H739.552V101.39H798.781V122.643H739.552V157.114H807.647V178.724H713.838Z" fill="black"/>
<path d="M815.277 178.724L859.433 51.0243H886.033L930.721 178.724H903.943L895.431 151.577H849.68L841.345 178.724H815.277ZM867.058 94.9603L855.709 131.752H889.225L877.875 94.9603L872.733 75.3141H872.378C870.25 83.887 868.477 90.4357 867.058 94.9603Z" fill="black"/>
<path d="M985.834 180.867C969.519 180.867 957.106 177.176 948.594 169.794C940.082 162.293 935.826 151.577 935.826 137.646V51.0243H961.539V137.646C961.539 152.648 969.46 160.15 985.302 160.15C993.223 160.15 999.193 158.066 1003.21 153.899C1007.23 149.731 1009.24 144.195 1009.24 137.289V51.0243H1034.95V137.646C1034.95 151.458 1030.76 162.114 1022.36 169.616C1014.09 177.117 1001.91 180.867 985.834 180.867Z" fill="black"/>
<path d="M1183.24 163.007C1172.13 175.39 1157.35 181.582 1138.91 181.582C1120.46 181.582 1105.63 175.39 1094.4 163.007C1083.28 150.505 1077.73 134.55 1077.73 115.142C1077.73 95.7342 1083.28 79.7792 1094.4 67.2771C1105.63 54.775 1120.46 48.5239 1138.91 48.5239C1157.35 48.5239 1172.13 54.775 1183.24 67.2771C1194.35 79.7792 1199.91 95.7342 1199.91 115.142C1199.91 134.55 1194.35 150.505 1183.24 163.007ZM1113.02 147.648C1119.16 156.101 1127.85 160.328 1139.08 160.328C1150.32 160.328 1158.89 156.161 1164.8 147.826C1170.71 139.372 1173.66 128.478 1173.66 115.142C1173.66 101.807 1170.71 90.912 1164.8 82.4582C1158.89 74.0044 1150.32 69.7775 1139.08 69.7775C1127.85 69.7775 1119.16 74.0044 1113.02 82.4582C1106.99 90.912 1103.97 101.807 1103.97 115.142C1103.97 128.359 1106.99 139.194 1113.02 147.648Z" fill="black"/>
<path d="M1213.97 178.724V51.0243H1304.77V72.9923H1239.69V103.712H1294.84V125.858H1239.69V178.724H1213.97Z" fill="black"/>
<path d="M414.528 348.276C397.386 348.276 384.086 344.645 374.628 337.382C365.171 330 360.205 319.522 359.732 305.948H384.914C385.741 313.568 388.401 319.045 392.894 322.379C397.504 325.713 404.361 327.38 413.464 327.38C420.676 327.38 426.587 326.07 431.198 323.451C435.808 320.712 438.114 316.545 438.114 310.949C438.114 308.925 437.818 307.139 437.227 305.591C436.754 303.924 435.69 302.495 434.035 301.304C432.38 299.995 430.961 298.982 429.779 298.268C428.597 297.435 426.41 296.601 423.218 295.768C420.026 294.815 417.602 294.16 415.947 293.803C414.292 293.327 411.218 292.553 406.726 291.481C401.287 290.171 396.795 289.04 393.248 288.088C389.82 287.135 385.978 285.647 381.722 283.623C377.584 281.599 374.274 279.396 371.791 277.015C369.427 274.514 367.417 271.299 365.762 267.37C364.107 263.322 363.279 258.738 363.279 253.618C363.279 241.354 367.712 231.947 376.579 225.399C385.564 218.731 397.327 215.397 411.868 215.397C426.291 215.397 437.818 218.85 446.448 225.756C455.078 232.662 459.866 242.485 460.812 255.225H436.163C435.454 249.034 432.853 244.271 428.36 240.937C423.986 237.603 418.43 235.936 411.691 235.936C404.716 235.936 399.159 237.305 395.022 240.044C390.884 242.783 388.815 246.414 388.815 250.939C388.815 255.821 390.825 259.393 394.844 261.655C398.982 263.917 406.194 266.179 416.479 268.442C422.626 269.751 427.651 271.002 431.552 272.192C435.454 273.264 439.65 274.871 444.143 277.015C448.754 279.039 452.3 281.301 454.783 283.801C457.384 286.302 459.512 289.636 461.167 293.803C462.94 297.851 463.827 302.555 463.827 307.913C463.827 320.534 459.275 330.416 450.172 337.56C441.069 344.704 429.188 348.276 414.528 348.276Z" fill="black"/>
<path d="M467.254 239.508V217.719H569.221V239.508H531.094V345.419H505.381V239.508H467.254Z" fill="black"/>
<path d="M557.071 345.419L601.226 217.719H627.826L672.514 345.419H645.737L637.225 318.271H591.473L583.139 345.419H557.071ZM608.852 261.655L597.503 298.447H631.018L619.669 261.655L614.526 242.009H614.172C612.044 250.582 610.27 257.13 608.852 261.655Z" fill="black"/>
<path d="M660.693 239.508V217.719H762.659V239.508H724.532V345.419H698.819V239.508H660.693Z" fill="black"/>
<path d="M775.84 345.419V217.719H801.553V345.419H775.84Z" fill="black"/>
<path d="M870.329 348.276C853.187 348.276 839.887 344.645 830.429 337.382C820.971 330 816.006 319.522 815.533 305.948H840.714C841.542 313.568 844.202 319.045 848.694 322.379C853.305 325.713 860.162 327.38 869.265 327.38C876.477 327.38 882.388 326.07 886.998 323.451C891.609 320.712 893.914 316.545 893.914 310.949C893.914 308.925 893.619 307.139 893.028 305.591C892.555 303.924 891.491 302.495 889.836 301.304C888.181 299.995 886.762 298.982 885.58 298.268C884.397 297.435 882.21 296.601 879.018 295.768C875.826 294.815 873.403 294.16 871.748 293.803C870.093 293.327 867.019 292.553 862.526 291.481C857.088 290.171 852.596 289.04 849.049 288.088C845.621 287.135 841.778 285.647 837.522 283.623C833.385 281.599 830.074 279.396 827.592 277.015C825.227 274.514 823.218 271.299 821.563 267.37C819.907 263.322 819.08 258.738 819.08 253.618C819.08 241.354 823.513 231.947 832.38 225.399C841.365 218.731 853.128 215.397 867.669 215.397C882.092 215.397 893.619 218.85 902.249 225.756C910.879 232.662 915.667 242.485 916.613 255.225H891.964C891.254 249.034 888.653 244.271 884.161 240.937C879.787 237.603 874.23 235.936 867.492 235.936C860.517 235.936 854.96 237.305 850.822 240.044C846.685 242.783 844.616 246.414 844.616 250.939C844.616 255.821 846.626 259.393 850.645 261.655C854.783 263.917 861.994 266.179 872.28 268.442C878.427 269.751 883.452 271.002 887.353 272.192C891.254 273.264 895.451 274.871 899.944 277.015C904.554 279.039 908.101 281.301 910.584 283.801C913.184 286.302 915.312 289.636 916.968 293.803C918.741 297.851 919.628 302.555 919.628 307.913C919.628 320.534 915.076 330.416 905.973 337.56C896.87 344.704 884.989 348.276 870.329 348.276Z" fill="black"/>
<path d="M923.055 239.508V217.719H1025.02V239.508H986.895V345.419H961.182V239.508H923.055Z" fill="black"/>
<path d="M1038.2 345.419V217.719H1063.92V345.419H1038.2Z" fill="black"/>
<path d="M1139.08 348.098C1121.22 348.098 1106.56 341.906 1095.1 329.523C1083.75 317.021 1078.07 301.185 1078.07 282.015C1078.07 262.726 1083.63 246.771 1094.74 234.15C1105.86 221.529 1120.57 215.218 1138.9 215.218C1154.03 215.218 1166.15 219.267 1175.25 227.363C1184.47 235.341 1189.79 245.64 1191.21 258.261H1165.68C1164.49 251.713 1161.54 246.533 1156.81 242.723C1152.2 238.913 1146.23 237.008 1138.9 237.008C1127.67 237.008 1119.1 241.175 1113.18 249.51C1107.27 257.845 1104.32 268.68 1104.32 282.015C1104.32 295.232 1107.45 306.007 1113.72 314.342C1120.1 322.677 1128.55 326.844 1139.08 326.844C1146.52 326.844 1152.73 324.82 1157.7 320.772C1162.66 316.604 1165.56 311.127 1166.38 304.341H1191.57C1190.86 316.366 1186.19 326.428 1177.56 334.524C1167.98 343.573 1155.15 348.098 1139.08 348.098Z" fill="black"/>
<path d="M1192.11 345.419L1236.27 217.719H1262.86L1307.55 345.419H1280.78L1272.26 318.271H1226.51L1218.18 345.419H1192.11ZM1243.89 261.655L1232.54 298.447H1266.06L1254.71 261.655L1249.57 242.009H1249.21C1247.08 250.582 1245.31 257.13 1243.89 261.655Z" fill="black"/>
<path d="M1318.22 345.419V217.719H1343.94V323.808H1403.52V345.419H1318.22Z" fill="black"/>
<path d="M1475.09 345.419L1438.2 217.719H1464.45L1480.94 281.122L1486.44 308.984H1486.79C1488.92 298.387 1490.87 289.338 1492.64 281.837L1506.47 217.719H1531.3L1545.13 281.658L1550.99 308.984H1551.34C1553.82 297.673 1555.89 288.326 1557.55 280.944L1573.51 217.719H1598.86L1562.69 345.419H1538.75L1523.32 277.015L1518.89 254.332H1518.53C1517.23 263.262 1515.87 270.823 1514.45 277.015L1498.85 345.419H1475.09Z" fill="black"/>
<path d="M1704.16 329.702C1693.04 342.085 1678.26 348.276 1659.82 348.276C1641.38 348.276 1626.54 342.085 1615.31 329.702C1604.2 317.2 1598.64 301.245 1598.64 281.837C1598.64 262.429 1604.2 246.474 1615.31 233.972C1626.54 221.47 1641.38 215.218 1659.82 215.218C1678.26 215.218 1693.04 221.47 1704.16 233.972C1715.27 246.474 1720.82 262.429 1720.82 281.837C1720.82 301.245 1715.27 317.2 1704.16 329.702ZM1633.93 314.342C1640.08 322.796 1648.77 327.023 1660 327.023C1671.23 327.023 1679.8 322.856 1685.71 314.521C1691.62 306.067 1694.58 295.172 1694.58 281.837C1694.58 268.501 1691.62 257.607 1685.71 249.153C1679.8 240.699 1671.23 236.472 1660 236.472C1648.77 236.472 1640.08 240.699 1633.93 249.153C1627.9 257.607 1624.89 268.501 1624.89 281.837C1624.89 295.053 1627.9 305.888 1633.93 314.342Z" fill="black"/>
<path d="M1734.89 345.419V217.719H1793.05C1805.23 217.719 1815.04 220.993 1822.49 227.542C1830.06 234.091 1833.84 242.664 1833.84 253.261C1833.84 269.573 1826.1 279.872 1810.61 284.159V284.694C1816.64 286.48 1821.13 289.338 1824.09 293.267C1827.16 297.077 1829.11 302.793 1829.94 310.413C1830.17 313.271 1830.41 316.664 1830.65 320.593C1831 324.403 1831.24 327.44 1831.36 329.702C1831.59 331.964 1831.83 334.226 1832.07 336.489C1832.42 338.751 1832.83 340.537 1833.31 341.847C1833.9 343.037 1834.61 343.811 1835.44 344.169V345.419H1810.79C1810.31 345.181 1809.9 344.764 1809.54 344.169C1809.19 343.454 1808.89 342.502 1808.66 341.311C1808.42 340.12 1808.19 338.93 1807.95 337.739C1807.83 336.429 1807.65 334.822 1807.42 332.917C1807.3 330.893 1807.18 329.166 1807.06 327.737C1806.94 326.189 1806.77 324.225 1806.53 321.843C1806.41 319.343 1806.29 317.378 1806.18 315.95C1805.11 301.423 1796.84 294.16 1781.35 294.16H1760.6V345.419H1734.89ZM1760.6 238.615V274.157H1787.91C1794.65 274.157 1799.79 272.549 1803.34 269.335C1807 266.12 1808.84 261.893 1808.84 256.654C1808.84 251.296 1807.12 246.95 1803.69 243.616C1800.26 240.282 1795.24 238.615 1788.62 238.615H1760.6Z" fill="black"/>
<path d="M1842.1 239.508V217.719H1944.07V239.508H1905.94V345.419H1880.23V239.508H1842.1Z" fill="black"/>
<path d="M1957.07 345.419V217.719H1982.79V267.727H2032.62V217.719H2058.33V345.419H2032.62V289.159H1982.79V345.419H1957.07Z" fill="black"/>
</svg>
