<svg width="1139" height="99" viewBox="0 0 1139 99" fill="none" xmlns="http://www.w3.org/2000/svg">
<path d="M31.1525 49.2518C31.1525 53.5304 27.678 56.999 23.3921 56.999C19.1061 56.999 15.6317 53.5304 15.6317 49.2518C15.6317 44.9731 19.1061 41.5045 23.3921 41.5045C27.678 41.5045 31.1525 44.9731 31.1525 49.2518Z" fill="#76A9E8"/>
<path d="M23.4618 16.2253C38.0037 16.2253 45.0721 27.8356 46.8028 33.1834L46.8132 33.2155L46.789 33.239C44.3257 35.6457 39.6113 38.9241 33.6646 40.8926C31.854 38.6603 29.3282 37.0306 26.4355 36.3514C29.8038 35.1125 32.2062 31.8784 32.2062 28.0837C32.2061 23.2195 28.2585 19.2762 23.3888 19.2762C18.5192 19.2762 14.5716 23.2195 14.5716 28.0837C14.5716 31.8827 16.9794 35.12 20.3538 36.3557C17.4665 37.038 14.9459 38.6675 13.1388 40.8977C6.78464 38.7147 2.61094 34.9955 0.0329431 33.2452L0 33.2228L0.0113184 33.1847C1.74221 27.35 8.21122 16.2253 23.4618 16.2253Z" fill="#76A9E8"/>
<path d="M13.4097 57.7987C14.5808 59.1535 16.0233 60.2676 17.6528 61.0568C15.7667 62.6721 14.5716 65.0697 14.5716 67.7461C14.5716 72.6104 18.5192 76.5537 23.3888 76.5537C28.2585 76.5537 32.2062 72.6104 32.2062 67.7461C32.2062 65.0748 31.0156 62.6813 29.1356 61.0661C30.7262 60.2989 32.1392 59.2224 33.2964 57.9147C41.3079 61.4832 45.5205 68.8834 46.8028 72.8457L46.8132 72.8779L46.789 72.9014C43.0366 76.5675 34.0607 82.2565 23.4618 82.2565C11.0057 82.2565 3.80826 75.4707 0.0329431 72.9075L0 72.8851L0.0113184 72.847C1.29919 68.5057 5.21013 61.2358 13.4097 57.7987Z" fill="#76A9E8"/>
<path d="M86.9003 47.307H100.14C102.087 47.307 103.71 46.7661 105.008 45.6844C106.306 44.5595 106.955 42.9586 106.955 40.8818C106.955 38.5453 106.371 36.9012 105.202 35.9493C104.034 34.9974 102.347 34.5215 100.14 34.5215H86.9003V47.307ZM78.7877 27.9016H101.308C105.462 27.9016 108.794 28.8534 111.303 30.7572C113.813 32.661 115.067 35.5382 115.067 39.389C115.067 41.7255 114.483 43.7374 113.315 45.4248C112.19 47.069 110.568 48.3454 108.447 49.254V49.3838C111.303 49.9895 113.466 51.3525 114.938 53.4726C116.409 55.5494 117.144 58.1671 117.144 61.3256C117.144 63.1428 116.82 64.8519 116.171 66.4528C115.522 68.0104 114.505 69.3733 113.12 70.5415C111.736 71.6665 109.962 72.5751 107.798 73.2674C105.635 73.9164 103.061 74.2409 100.075 74.2409H78.7877V27.9016ZM86.9003 67.621H101.243C103.71 67.621 105.613 66.9936 106.955 65.7388C108.339 64.4408 109.032 62.6236 109.032 60.2872C109.032 57.994 108.339 56.2417 106.955 55.0302C105.613 53.7754 103.71 53.148 101.243 53.148H86.9003V67.621ZM123.965 27.9016H132.078V54.9004C132.078 56.458 132.143 58.0373 132.273 59.6381C132.446 61.239 132.878 62.6885 133.571 63.9865C134.306 65.2413 135.388 66.2797 136.816 67.1018C138.287 67.9238 140.342 68.3349 142.981 68.3349C145.621 68.3349 147.654 67.9238 149.082 67.1018C150.553 66.2797 151.635 65.2413 152.327 63.9865C153.063 62.6885 153.495 61.239 153.625 59.6381C153.798 58.0373 153.885 56.458 153.885 54.9004V27.9016H161.997V57.5613C161.997 60.5468 161.543 63.1428 160.634 65.3494C159.726 67.5561 158.428 69.4166 156.74 70.9309C155.096 72.402 153.106 73.5053 150.77 74.2409C148.433 74.9764 145.837 75.3442 142.981 75.3442C140.126 75.3442 137.53 74.9764 135.193 74.2409C132.857 73.5053 130.845 72.402 129.157 70.9309C127.513 69.4166 126.237 67.5561 125.328 65.3494C124.42 63.1428 123.965 60.5468 123.965 57.5613V27.9016ZM171.322 27.9016H193.454C198.559 27.9016 202.388 29.0049 204.941 31.2115C207.494 33.4181 208.77 36.4901 208.77 40.4274C208.77 42.6341 208.446 44.4729 207.797 45.944C207.148 47.3719 206.391 48.5401 205.525 49.4487C204.66 50.314 203.794 50.9414 202.929 51.3308C202.107 51.7202 201.501 51.9798 201.112 52.1096V52.2394C201.804 52.326 202.54 52.5423 203.319 52.8884C204.141 53.2346 204.898 53.7971 205.59 54.5759C206.282 55.3114 206.845 56.2849 207.278 57.4964C207.753 58.7079 207.991 60.2223 207.991 62.0395C207.991 64.7653 208.186 67.2532 208.576 69.5031C209.008 71.7097 209.657 73.289 210.523 74.2409H201.826C201.22 73.2457 200.852 72.1424 200.722 70.9309C200.636 69.7194 200.593 68.5512 200.593 67.4263C200.593 65.3062 200.463 63.4889 200.203 61.9746C199.944 60.417 199.468 59.1406 198.775 58.1454C198.083 57.107 197.131 56.3498 195.92 55.8739C194.752 55.3979 193.237 55.16 191.377 55.16H179.435V74.2409H171.322V27.9016ZM179.435 48.9944H192.74C195.336 48.9944 197.304 48.3886 198.646 47.1772C199.987 45.9224 200.658 44.0619 200.658 41.5957C200.658 40.1246 200.441 38.9347 200.009 38.0261C199.576 37.0742 198.97 36.3387 198.191 35.8195C197.456 35.3003 196.59 34.9541 195.595 34.7811C194.643 34.608 193.648 34.5215 192.61 34.5215H179.435V48.9944ZM217.019 27.9016H250.378V34.9109H225.132V47.0474H248.496V53.6673H225.132V67.2316H250.833V74.2409H217.019V27.9016ZM270.295 27.9016H278.927L296.775 74.2409H288.078L283.73 61.9746H265.233L260.885 74.2409H252.512L270.295 27.9016ZM267.44 55.809H281.588L274.644 35.8844H274.449L267.44 55.809ZM300.669 27.9016H308.781V54.9004C308.781 56.458 308.846 58.0373 308.976 59.6381C309.149 61.239 309.582 62.6885 310.274 63.9865C311.009 65.2413 312.091 66.2797 313.519 67.1018C314.99 67.9238 317.045 68.3349 319.685 68.3349C322.324 68.3349 324.357 67.9238 325.785 67.1018C327.256 66.2797 328.338 65.2413 329.03 63.9865C329.766 62.6885 330.198 61.239 330.328 59.6381C330.501 58.0373 330.588 56.458 330.588 54.9004V27.9016H338.701V57.5613C338.701 60.5468 338.246 63.1428 337.338 65.3494C336.429 67.5561 335.131 69.4166 333.444 70.9309C331.799 72.402 329.809 73.5053 327.473 74.2409C325.136 74.9764 322.54 75.3442 319.685 75.3442C316.829 75.3442 314.233 74.9764 311.896 74.2409C309.56 73.5053 307.548 72.402 305.861 70.9309C304.216 69.4166 302.94 67.5561 302.031 65.3494C301.123 63.1428 300.669 60.5468 300.669 57.5613V27.9016ZM385.819 33.4181C383.352 33.4181 381.211 33.9157 379.393 34.9109C377.62 35.906 376.17 37.2473 375.045 38.9347C373.92 40.5789 373.076 42.461 372.514 44.5811C371.995 46.7012 371.735 48.8646 371.735 51.0712C371.735 53.2778 371.995 55.4412 372.514 57.5613C373.076 59.6814 373.92 61.5852 375.045 63.2726C376.17 64.9168 377.62 66.2364 379.393 67.2316C381.211 68.2267 383.352 68.7243 385.819 68.7243C388.285 68.7243 390.405 68.2267 392.179 67.2316C393.996 66.2364 395.467 64.9168 396.592 63.2726C397.717 61.5852 398.539 59.6814 399.058 57.5613C399.621 55.4412 399.902 53.2778 399.902 51.0712C399.902 48.8646 399.621 46.7012 399.058 44.5811C398.539 42.461 397.717 40.5789 396.592 38.9347C395.467 37.2473 393.996 35.906 392.179 34.9109C390.405 33.9157 388.285 33.4181 385.819 33.4181ZM385.819 26.7982C389.28 26.7982 392.374 27.4472 395.1 28.7453C397.869 30.0433 400.205 31.7956 402.109 34.0022C404.013 36.2089 405.462 38.7833 406.457 41.7255C407.496 44.6676 408.015 47.7829 408.015 51.0712C408.015 54.4028 407.496 57.5397 406.457 60.4819C405.462 63.424 404.013 65.9984 402.109 68.2051C400.205 70.4117 397.869 72.164 395.1 73.4621C392.374 74.7168 389.28 75.3442 385.819 75.3442C382.357 75.3442 379.242 74.7168 376.473 73.4621C373.747 72.164 371.432 70.4117 369.529 68.2051C367.625 65.9984 366.154 63.424 365.115 60.4819C364.12 57.5397 363.623 54.4028 363.623 51.0712C363.623 47.7829 364.12 44.6676 365.115 41.7255C366.154 38.7833 367.625 36.2089 369.529 34.0022C371.432 31.7956 373.747 30.0433 376.473 28.7453C379.242 27.4472 382.357 26.7982 385.819 26.7982ZM415.398 27.9016H447.394V34.9109H423.511V47.0474H444.474V53.6673H423.511V74.2409H415.398V27.9016ZM477.255 58.7944C477.255 60.5684 477.558 62.0828 478.164 63.3375C478.769 64.5923 479.613 65.6307 480.695 66.4528C481.776 67.2316 483.01 67.8157 484.394 68.2051C485.822 68.5512 487.358 68.7243 489.002 68.7243C490.776 68.7243 492.29 68.5296 493.545 68.1402C494.8 67.7075 495.817 67.1667 496.596 66.5177C497.374 65.8686 497.937 65.1331 498.283 64.311C498.629 63.4457 498.802 62.5803 498.802 61.715C498.802 59.941 498.391 58.643 497.569 57.8209C496.79 56.9556 495.925 56.3498 494.973 56.0037C493.329 55.3979 491.403 54.8355 489.197 54.3163C487.033 53.7538 484.351 53.0399 481.149 52.1745C479.159 51.6553 477.493 50.9847 476.152 50.1626C474.854 49.2973 473.815 48.3454 473.036 47.307C472.258 46.2685 471.695 45.1652 471.349 43.997C471.046 42.8288 470.895 41.6389 470.895 40.4274C470.895 38.091 471.371 36.0791 472.323 34.3917C473.318 32.661 474.616 31.2331 476.217 30.1082C477.818 28.9832 479.635 28.1612 481.668 27.6419C483.702 27.0795 485.757 26.7982 487.834 26.7982C490.257 26.7982 492.528 27.1227 494.649 27.7718C496.812 28.3775 498.694 29.3077 500.295 30.5625C501.939 31.8172 503.237 33.3749 504.189 35.2354C505.141 37.0526 505.617 39.1727 505.617 41.5957H497.504C497.288 38.6102 496.271 36.5118 494.454 35.3003C492.637 34.0455 490.322 33.4181 487.509 33.4181C486.558 33.4181 485.584 33.5263 484.589 33.7426C483.594 33.9157 482.685 34.2402 481.863 34.7162C481.041 35.1488 480.349 35.7546 479.786 36.5334C479.267 37.3122 479.007 38.2857 479.007 39.4539C479.007 41.0981 479.505 42.3961 480.5 43.348C481.539 44.2566 482.88 44.9489 484.524 45.4248C484.697 45.4681 485.368 45.6628 486.536 46.0089C487.747 46.3118 489.089 46.6579 490.56 47.0474C492.031 47.4368 493.459 47.8262 494.843 48.2156C496.271 48.5617 497.288 48.8213 497.894 48.9944C499.408 49.4703 500.728 50.1193 501.853 50.9414C502.977 51.7635 503.908 52.7154 504.643 53.7971C505.422 54.8355 505.985 55.9604 506.331 57.1719C506.72 58.3834 506.915 59.5949 506.915 60.8064C506.915 63.4024 506.374 65.6307 505.292 67.4912C504.254 69.3084 502.869 70.8011 501.139 71.9693C499.408 73.1376 497.439 73.9813 495.233 74.5005C493.026 75.063 490.776 75.3442 488.483 75.3442C485.844 75.3442 483.356 75.0197 481.019 74.3707C478.683 73.7217 476.649 72.7265 474.919 71.3852C473.188 70.0439 471.803 68.3349 470.765 66.2581C469.727 64.138 469.186 61.6501 469.142 58.7944H477.255ZM509.604 27.9016H547.117V34.9109H532.384V74.2409H524.272V34.9109H509.604V27.9016ZM558.927 27.9016H567.559L585.407 74.2409H576.71L572.362 61.9746H553.865L549.517 74.2409H541.145L558.927 27.9016ZM556.072 55.809H570.22L563.276 35.8844H563.081L556.072 55.809ZM579.449 27.9016H616.962V34.9109H602.229V74.2409H594.116V34.9109H579.449V27.9016ZM622.334 27.9016H630.446V74.2409H622.334V27.9016ZM645.719 58.7944C645.719 60.5684 646.022 62.0828 646.627 63.3375C647.233 64.5923 648.077 65.6307 649.159 66.4528C650.24 67.2316 651.473 67.8157 652.858 68.2051C654.286 68.5512 655.822 68.7243 657.466 68.7243C659.24 68.7243 660.754 68.5296 662.009 68.1402C663.264 67.7075 664.281 67.1667 665.059 66.5177C665.838 65.8686 666.401 65.1331 666.747 64.311C667.093 63.4457 667.266 62.5803 667.266 61.715C667.266 59.941 666.855 58.643 666.033 57.8209C665.254 56.9556 664.389 56.3498 663.437 56.0037C661.793 55.3979 659.867 54.8355 657.661 54.3163C655.497 53.7538 652.815 53.0399 649.613 52.1745C647.623 51.6553 645.957 50.9847 644.616 50.1626C643.318 49.2973 642.279 48.3454 641.5 47.307C640.721 46.2685 640.159 45.1652 639.813 43.997C639.51 42.8288 639.359 41.6389 639.359 40.4274C639.359 38.091 639.834 36.0791 640.786 34.3917C641.782 32.661 643.08 31.2331 644.68 30.1082C646.281 28.9832 648.099 28.1612 650.132 27.6419C652.166 27.0795 654.221 26.7982 656.298 26.7982C658.721 26.7982 660.992 27.1227 663.112 27.7718C665.276 28.3775 667.158 29.3077 668.759 30.5625C670.403 31.8172 671.701 33.3749 672.653 35.2354C673.605 37.0526 674.081 39.1727 674.081 41.5957H665.968C665.752 38.6102 664.735 36.5118 662.918 35.3003C661.1 34.0455 658.786 33.4181 655.973 33.4181C655.021 33.4181 654.048 33.5263 653.053 33.7426C652.058 33.9157 651.149 34.2402 650.327 34.7162C649.505 35.1488 648.812 35.7546 648.25 36.5334C647.731 37.3122 647.471 38.2857 647.471 39.4539C647.471 41.0981 647.969 42.3961 648.964 43.348C650.002 44.2566 651.344 44.9489 652.988 45.4248C653.161 45.4681 653.831 45.6628 655 46.0089C656.211 46.3118 657.552 46.6579 659.024 47.0474C660.495 47.4368 661.922 47.8262 663.307 48.2156C664.735 48.5617 665.752 48.8213 666.357 48.9944C667.872 49.4703 669.191 50.1193 670.316 50.9414C671.441 51.7635 672.372 52.7154 673.107 53.7971C673.886 54.8355 674.448 55.9604 674.794 57.1719C675.184 58.3834 675.379 59.5949 675.379 60.8064C675.379 63.4024 674.838 65.6307 673.756 67.4912C672.718 69.3084 671.333 70.8011 669.602 71.9693C667.872 73.1376 665.903 73.9813 663.696 74.5005C661.49 75.063 659.24 75.3442 656.947 75.3442C654.307 75.3442 651.82 75.0197 649.483 74.3707C647.147 73.7217 645.113 72.7265 643.382 71.3852C641.652 70.0439 640.267 68.3349 639.229 66.2581C638.19 64.138 637.649 61.6501 637.606 58.7944H645.719ZM678.068 27.9016H715.581V34.9109H700.848V74.2409H692.736V34.9109H678.068V27.9016ZM720.953 27.9016H729.065V74.2409H720.953V27.9016ZM770.298 42.6341C769.952 41.2928 769.476 40.0597 768.87 38.9347C768.265 37.8098 767.486 36.8363 766.534 36.0142C765.582 35.1921 764.457 34.5647 763.159 34.132C761.904 33.6561 760.433 33.4181 758.746 33.4181C756.28 33.4181 754.138 33.9157 752.321 34.9109C750.547 35.906 749.097 37.2473 747.972 38.9347C746.847 40.5789 746.004 42.461 745.441 44.5811C744.922 46.7012 744.662 48.8646 744.662 51.0712C744.662 53.2778 744.922 55.4412 745.441 57.5613C746.004 59.6814 746.847 61.5852 747.972 63.2726C749.097 64.9168 750.547 66.2364 752.321 67.2316C754.138 68.2267 756.28 68.7243 758.746 68.7243C760.563 68.7243 762.164 68.4214 763.549 67.8157C764.933 67.1667 766.123 66.3013 767.118 65.2196C768.113 64.0947 768.892 62.7967 769.455 61.3256C770.017 59.8545 770.385 58.2752 770.558 56.5878H778.476C778.303 59.3569 777.697 61.888 776.659 64.1812C775.663 66.4744 774.301 68.4647 772.57 70.1521C770.839 71.7963 768.806 73.0727 766.469 73.9813C764.133 74.8899 761.558 75.3442 758.746 75.3442C755.285 75.3442 752.169 74.7168 749.4 73.4621C746.674 72.164 744.36 70.4117 742.456 68.2051C740.552 65.9984 739.081 63.424 738.043 60.4819C737.047 57.5397 736.55 54.4028 736.55 51.0712C736.55 47.7829 737.047 44.6676 738.043 41.7255C739.081 38.7833 740.552 36.2089 742.456 34.0022C744.36 31.7956 746.674 30.0433 749.4 28.7453C752.169 27.4472 755.285 26.7982 758.746 26.7982C761.342 26.7982 763.787 27.166 766.08 27.9016C768.373 28.5938 770.385 29.6322 772.116 31.0168C773.89 32.3581 775.317 34.0022 776.399 35.9493C777.481 37.8963 778.151 40.1246 778.411 42.6341H770.298ZM798.25 27.9016H806.882L824.73 74.2409H816.033L811.684 61.9746H793.188L788.839 74.2409H780.467L798.25 27.9016ZM795.394 55.809H809.543L802.598 35.8844H802.404L795.394 55.809ZM829.142 27.9016H837.255V67.2316H860.814V74.2409H829.142V27.9016ZM879.93 27.9016H888.172L896.544 63.3375H896.674L906.02 27.9016H914.327L923.413 63.3375H923.543L932.175 27.9016H940.418L927.632 74.2409H919.39L910.109 38.8049H909.979L900.503 74.2409H892.131L879.93 27.9016ZM965.491 33.4181C963.025 33.4181 960.883 33.9157 959.066 34.9109C957.292 35.906 955.843 37.2473 954.718 38.9347C953.593 40.5789 952.749 42.461 952.186 44.5811C951.667 46.7012 951.408 48.8646 951.408 51.0712C951.408 53.2778 951.667 55.4412 952.186 57.5613C952.749 59.6814 953.593 61.5852 954.718 63.2726C955.843 64.9168 957.292 66.2364 959.066 67.2316C960.883 68.2267 963.025 68.7243 965.491 68.7243C967.957 68.7243 970.077 68.2267 971.851 67.2316C973.669 66.2364 975.14 64.9168 976.265 63.2726C977.39 61.5852 978.212 59.6814 978.731 57.5613C979.293 55.4412 979.575 53.2778 979.575 51.0712C979.575 48.8646 979.293 46.7012 978.731 44.5811C978.212 42.461 977.39 40.5789 976.265 38.9347C975.14 37.2473 973.669 35.906 971.851 34.9109C970.077 33.9157 967.957 33.4181 965.491 33.4181ZM965.491 26.7982C968.953 26.7982 972.046 27.4472 974.772 28.7453C977.541 30.0433 979.878 31.7956 981.781 34.0022C983.685 36.2089 985.134 38.7833 986.13 41.7255C987.168 44.6676 987.687 47.7829 987.687 51.0712C987.687 54.4028 987.168 57.5397 986.13 60.4819C985.134 63.424 983.685 65.9984 981.781 68.2051C979.878 70.4117 977.541 72.164 974.772 73.4621C972.046 74.7168 968.953 75.3442 965.491 75.3442C962.03 75.3442 958.914 74.7168 956.145 73.4621C953.42 72.164 951.105 70.4117 949.201 68.2051C947.297 65.9984 945.826 63.424 944.788 60.4819C943.793 57.5397 943.295 54.4028 943.295 51.0712C943.295 47.7829 943.793 44.6676 944.788 41.7255C945.826 38.7833 947.297 36.2089 949.201 34.0022C951.105 31.7956 953.42 30.0433 956.145 28.7453C958.914 27.4472 962.03 26.7982 965.491 26.7982ZM995.071 27.9016H1017.2C1022.31 27.9016 1026.14 29.0049 1028.69 31.2115C1031.24 33.4181 1032.52 36.4901 1032.52 40.4274C1032.52 42.6341 1032.19 44.4729 1031.55 45.944C1030.9 47.3719 1030.14 48.5401 1029.27 49.4487C1028.41 50.314 1027.54 50.9414 1026.68 51.3308C1025.86 51.7202 1025.25 51.9798 1024.86 52.1096V52.2394C1025.55 52.326 1026.29 52.5423 1027.07 52.8884C1027.89 53.2346 1028.65 53.7971 1029.34 54.5759C1030.03 55.3114 1030.59 56.2849 1031.03 57.4964C1031.5 58.7079 1031.74 60.2223 1031.74 62.0395C1031.74 64.7653 1031.93 67.2532 1032.32 69.5031C1032.76 71.7097 1033.41 73.289 1034.27 74.2409H1025.57C1024.97 73.2457 1024.6 72.1424 1024.47 70.9309C1024.38 69.7194 1024.34 68.5512 1024.34 67.4263C1024.34 65.3062 1024.21 63.4889 1023.95 61.9746C1023.69 60.417 1023.22 59.1406 1022.52 58.1454C1021.83 57.107 1020.88 56.3498 1019.67 55.8739C1018.5 55.3979 1016.99 55.16 1015.13 55.16H1003.18V74.2409H995.071V27.9016ZM1003.18 48.9944H1016.49C1019.08 48.9944 1021.05 48.3886 1022.39 47.1772C1023.74 45.9224 1024.41 44.0619 1024.41 41.5957C1024.41 40.1246 1024.19 38.9347 1023.76 38.0261C1023.32 37.0742 1022.72 36.3387 1021.94 35.8195C1021.2 35.3003 1020.34 34.9541 1019.34 34.7811C1018.39 34.608 1017.4 34.5215 1016.36 34.5215H1003.18V48.9944ZM1035.21 27.9016H1072.73V34.9109H1057.99V74.2409H1049.88V34.9109H1035.21V27.9016ZM1077.9 27.9016H1086.02V46.3334H1107.11V27.9016H1115.22V74.2409H1107.11V53.3427H1086.02V74.2409H1077.9V27.9016Z" fill="#76A9E8"/>
</svg>
