<svg width="4391" height="2129" viewBox="0 0 4391 2129" fill="none" xmlns="http://www.w3.org/2000/svg">
<path d="M2275.12 1943.17C2274.25 1947.96 2274.82 1931.97 2273.52 1942.59C2273.43 1940.37 2273.34 1938.15 2273.26 1935.93C2273.74 1935.37 2274.22 1934.8 2274.7 1934.24C2274.84 1937.21 2274.98 1940.18 2275.12 1943.17C2275.12 1943.17 2275.12 1943.17 2275.12 1943.17ZM2281.14 1947.23C2279.77 1944.5 2279.4 1935.85 2278.14 1945.2C2278.61 1945.94 2279.08 1946.7 2279.55 1947.44C2279.18 1950.69 2278.82 1953.96 2278.45 1957.2C2278.63 1958.37 2278.81 1959.53 2278.99 1960.7C2278.17 1962.19 2277.35 1963.66 2276.53 1965.15C2276.65 1963.83 2276.78 1962.49 2276.9 1961.17C2276.23 1955.95 2276.05 1951.31 2275.93 1944.23C2275.73 1944.85 2275.54 1945.47 2275.35 1946.09C2275.68 1942.5 2276.01 1938.91 2276.34 1935.33C2276.66 1938.44 2277.02 1941.91 2277.32 1944.79C2278.6 1940.18 2277.89 1932.05 2277.62 1927.82C2277.25 1922.05 2277.86 1923.36 2277.61 1919.08C2277.57 1918.4 2277.09 1918.32 2277.08 1916.97C2277.05 1910.16 2277.3 1896.93 2278.41 1904.67C2278.27 1915.88 2279.16 1925.44 2278.84 1936.43C2280.13 1933.53 2280.56 1939.32 2281.14 1947.23ZM2277.03 1741.28C2277.66 1744.68 2277.41 1751.6 2276.97 1756.29C2276.97 1756.29 2276.97 1756.3 2276.97 1756.3C2276.88 1757.33 2276.04 1759.67 2276.08 1756.3C2276.14 1750.81 2277.45 1748.16 2276.56 1745.28C2276.72 1743.99 2276.87 1742.63 2277.03 1741.28ZM2276.96 1729.35C2277.28 1725.98 2278.26 1727.51 2278 1731.73C2278 1731.73 2278 1731.73 2278 1731.73C2277.89 1733.49 2277.11 1730.03 2277.9 1736.34C2277.28 1737.63 2276.72 1738.9 2276.13 1740.17C2276.12 1738.63 2276.1 1737.22 2276.09 1735.6C2277.1 1736.69 2276.64 1732.72 2276.96 1729.35ZM2277.86 1898.97C2276.95 1898.44 2276.95 1900.66 2276.32 1904.44C2276.35 1900.87 2276.38 1897.31 2276.41 1893.76C2276.89 1895.5 2277.37 1897.23 2277.86 1898.97ZM2277.71 1982.71C2277.71 1982.72 2277.71 1982.73 2277.71 1982.73C2277.86 1983.9 2278 1985.07 2278.14 1986.22C2277.82 1986.92 2277.5 1987.61 2277.17 1988.31C2277.48 1992.43 2277.78 1996.58 2278.09 2000.71C2277.09 2000.21 2277.26 1992.8 2276.56 1988.72C2276.86 1982.65 2277.44 1979.73 2278.28 1979.34C2278.09 1980.46 2277.9 1981.58 2277.71 1982.71Z" fill="black"/>
<path d="M17.4028 1086.25C18.2716 1056.95 17.7021 1154.74 18.9995 1089.81C19.0872 1103.35 19.1776 1116.97 19.2653 1130.51C18.7848 1133.95 18.3054 1137.46 17.8249 1140.9C17.6834 1122.71 17.542 1104.52 17.4005 1086.25C17.4013 1086.25 17.402 1086.25 17.4028 1086.25ZM0.0742235 217.903C0.155969 190.43 -0.282568 127.485 0.343477 92.7732C0.497757 84.2332 2.49626 55.7821 2.7597 55.9267C3.6469 56.7619 3.76767 91.5072 4.34582 54.2947C4.35183 66.8128 4.38513 78.9619 4.40108 91.3884C4.99722 89.1612 5.59177 86.9448 6.18591 84.8103C6.09619 69.6822 6.00602 54.5358 5.91431 39.4075C6.11169 38.6648 6.30952 37.9245 6.5069 37.1818C6.51089 91.5701 7.27272 59.4635 7.9825 87.679C8.3413 61.6973 8.69836 35.5225 9.05716 9.63349C9.0133 24.5742 8.98082 42.2039 8.929 55.3825C9.93975 57.1463 9.69877 25.7044 9.88608 20.3166C10.9447 -10.0308 10.4104 144.475 11.8814 157.119C12.0448 132.437 12.2043 106.538 12.3658 81.2989C12.5472 88.5375 12.7288 95.8716 12.9102 103.11C11.8956 160.369 11.5362 224.578 10.9043 291.3C10.9461 297.327 10.9891 303.367 11.0289 309.303C11.4853 307.54 11.94 305.872 12.3964 304.109C12.4502 313.205 12.5036 322.414 12.5574 331.509C11.0543 304.692 11.0748 341.829 10.1577 386.656C9.62944 362.808 9.9497 333.387 8.96545 335.417C9.72271 417.268 8.65252 513.125 9.50748 592.749C9.71878 612.515 10.9885 612.451 10.8714 658.925C10.7318 657.346 10.4799 657.077 10.2964 656.056C10.9045 736.431 11.268 785.197 10.648 868.728C11.1043 863.904 11.5626 859.159 12.0189 854.335C11.7917 836.608 11.5608 818.851 11.3335 801.217C12.087 789.154 12.4196 806.982 12.4117 754.083C12.4057 710.739 12.0729 736.541 11.8496 724.754C11.5448 708.793 12.1445 694.787 11.8038 677.62C11.5426 664.348 10.9208 678.705 11.0783 644.087C11.8838 658.009 12.7155 672.211 13.531 686.226C13.3496 694.671 13.1653 703.053 12.9819 711.499C12.7666 702.96 12.5541 694.566 12.3388 686.028C12.7255 716.096 13.0903 744.508 13.491 775.597C12.3267 765.481 12.7632 797.616 12.9008 815.065C13.1159 842.246 12.3145 818.959 12.4481 836.777C12.5837 854.597 13.479 873.815 13.2876 906.019C12.7693 888.759 12.3045 912.238 11.8261 907.701C11.3477 903.154 11.2418 869.089 10.7197 901.815C11.1165 964.74 12.9384 896.459 13.2335 938.959C13.5884 990 10.6186 1002.15 9.98014 986.933C9.47771 974.96 9.57876 933.763 9.07832 921.698C8.1752 995.481 9.9581 996.122 10.307 1008.74C11.5769 1054.59 8.18743 1023.79 9.41342 1078.09C8.77957 1077.06 8.20947 1076.24 7.60155 1075.22C7.71717 1084.58 7.87083 1090.8 7.96251 1102.12C9.19753 1068.75 9.14459 1096.07 9.14652 1110.09C9.15051 1132.17 9.75291 1098.06 9.90842 1103.9C10.3246 1119.68 10.1356 1144.63 10.6797 1129.32C10.4265 1136.19 10.1726 1143.64 9.92136 1150.69C10.2369 1176.5 12.8824 1237.15 12.3482 1179.43C13.3311 1184.81 12.8587 1203.48 12.7091 1218.05C12.5597 1232.62 13.1857 1232.35 13.0701 1245.16C12.6075 1296.1 11.5367 1262.78 10.6974 1254.7C11.2755 1321.99 11.658 1256.11 12.0448 1353.07C12.7287 1362.45 13.4584 1317.65 13.8532 1354.95C12.6651 1361.83 11.8117 1389.3 11.4169 1442.84C11.6901 1448.04 11.9657 1453.22 12.2388 1458.42C11.1422 1487.66 10.002 1472.71 11.3617 1526.82C8.85956 1497.77 10.4603 1517.75 9.44164 1566.19C9.23628 1576.03 8.71716 1553.3 8.45399 1567.03C8.3353 1573.26 8.72715 1588.37 8.42459 1603.58C8.27507 1611.01 7.31029 1645.72 7.76851 1669.76C8.98072 1652.12 10.012 1697.8 11.0148 1658.63C10.7676 1731.02 11.3496 1781.69 9.69678 1700.57C9.32993 1718.95 8.96464 1737.34 8.59978 1755.72C8.88888 1768.52 9.1757 1781.44 9.4628 1794.34C8.46651 1796.29 8.18702 1794.33 8.36228 1844.79C8.12712 1822.9 7.88807 1801.1 7.65093 1779.11C7.44974 1778.37 7.24064 1775.31 7.04541 1776.04C7.42806 1802.97 7.59275 1878.79 7.85787 1897.17C8.12304 1915.54 8.19561 1880.06 8.45281 1885.35C10.5737 1929.42 9.00946 1925.93 9.37344 1957.56C9.58877 1976.12 9.82259 1931.8 9.9143 1941.73C10.2504 1978.55 9.12327 1995.63 9.10889 2028.28C9.7487 2016.68 10.3984 2005.18 11.0442 1993.86C11.0103 2028.11 11.0046 2066.28 11.21 2098.12C11.2902 2110.61 11.766 2101.17 11.7979 2103.21C11.8476 2106.29 11.906 2112.23 11.9634 2119.14L9.63281 2116.81C25.4644 2116.68 46.3597 2116.55 49.3961 2116.55C82.2319 2116.55 83.1703 2117.2 115.077 2117.24C102.552 2117.3 90.7735 2117.35 78.5268 2117.4C72.959 2118.47 67.28 2119.54 61.7109 2120.61C92.9825 2120.69 124.269 2120.76 155.633 2120.84C132.713 2120.48 109.707 2120.13 86.7865 2119.77C122.61 2118.91 158.436 2118.04 194.26 2117.18C212.913 2117.71 231.494 2118.24 250.148 2118.77C300.808 2118.63 290.606 2116.48 314.642 2118.36C329.577 2118.2 344.516 2118.04 359.451 2117.88C357.317 2118.15 355.205 2118.42 353.071 2118.69C371.077 2118.53 389.074 2118.36 407.08 2118.2C388.149 2117.24 369.591 2116.24 350.845 2115.31C386.277 2115.11 386.958 2115.92 392.242 2116.12C406.257 2116.65 434.075 2115.93 445.212 2116.43C448.977 2116.6 414.254 2117.13 426.22 2117.74C428.558 2117.86 475.048 2120.12 504.711 2119.6C504.153 2119.19 501.861 2118.69 500.655 2118.24C540.549 2117.99 560.893 2120.13 555.604 2120.72C576.858 2120.31 607.92 2120.27 612.283 2119.62C623.142 2119.6 633.918 2119.59 644.777 2119.57C633.463 2121.16 678.753 2120.87 681.723 2119.5C663.068 2119.47 644.391 2119.43 625.736 2119.4C639.843 2117.72 583.153 2116.71 701.111 2118.26C723.664 2119.13 661.021 2118.14 679.398 2118.8C711.323 2119.18 741.291 2118.86 771.638 2119.47C809.399 2120.23 762.94 2120.96 850.92 2119.99C656.855 2117.57 877.537 2118.35 968.681 2117.6C993.74 2119.99 1070.71 2120.75 1176.7 2120.04C1165.66 2119.37 1132.31 2119.72 1113.1 2119.5C1093.89 2119.28 1114.67 2118.88 1090.74 2118.57C1066.81 2118.26 1015.96 2117.84 991.729 2117.37C1012.25 2116.99 1113.56 2116.1 1046.58 2117.17C1096.58 2117.83 1120.07 2118.51 1182.04 2118.63C1200.61 2117.59 1199.23 2116.95 1259.65 2116.92C1223.92 2118.36 1292.56 2119.36 1277.45 2120.85C1234.61 2120.51 1258.55 2119.06 1233.78 2118.36C1231.24 2118.3 1191.32 2118.66 1182.04 2118.63C1222.33 2119.93 1236.25 2120.42 1211.47 2121.97C1239.97 2121.83 1257.69 2122.03 1260.29 2121.29C1266.23 2121.61 1272.2 2121.93 1278.04 2122.25C1287.32 2122.24 1295.66 2122.21 1305.49 2122.22C1291.96 2121.1 1318.2 2121.79 1336.85 2121.28C1355.51 2120.78 1330.48 2119.9 1381.71 2119.88C1364.63 2119.62 1349.02 2119.4 1332.5 2119.15C1365.53 2118.87 1398.67 2118.58 1431.71 2118.29C1408.51 2117.61 1358.23 2116.59 1359.6 2115.7C1374.82 2116.04 1426.95 2115.44 1432.65 2115.42C1454.74 2115.33 1442.7 2115.89 1444.37 2115.9C1479.08 2116.18 1507.66 2115.99 1520.84 2116.84C1546.91 2116.46 1566.58 2116.68 1594.23 2116.66C1609.45 2116.64 1606.49 2116.01 1615.4 2116.13C1674.61 2116.93 1618.2 2117.75 1732.42 2116.2C1718.59 2115.76 1704.95 2115.31 1691.12 2114.87C1704.02 2114.7 1716.85 2114.53 1729.75 2114.37C1738.38 2114.45 1746.93 2114.53 1755.57 2114.61C1755.38 2115.56 1755.16 2116.51 1754.97 2117.46C1764.44 2117.52 1773.94 2117.57 1783.41 2117.62C1767.17 2117.71 1750.89 2117.81 1734.64 2117.9C1733.16 2118.07 1731.78 2118.23 1730.29 2118.4C1754.42 2118.66 1778.47 2118.92 1802.6 2119.18C1803.06 2118.85 1803.52 2118.52 1803.99 2118.19C1858.37 2118.65 1859.67 2118.93 1911.36 2118.02C1951.18 2118.03 1983.6 2116.64 2006.62 2116.06C2014.88 2116.25 2023.14 2116.44 2031.49 2116.62C2036.78 2116.35 2042.13 2116.07 2047.42 2115.8C2057.91 2116.18 2068.54 2116.56 2079.02 2116.94C2084.87 2116.07 2087.9 2115.8 2046.97 2115.5C2060.99 2114.42 2133.03 2114.89 2162.36 2115.26C2184.61 2115.53 2159.92 2116.43 2162.71 2116.54C2172 2116.92 2208.67 2116.59 2216.37 2116.66C2248.95 2116.91 2271.77 2116.87 2301.19 2117.07C2306.92 2117.11 2322.93 2117.68 2324.29 2117.7C2334.87 2117.79 2360.99 2118.07 2363.95 2118.08C2517.15 2118.51 2353.46 2116.03 2495.91 2116.29C2491.64 2115.96 2487.72 2115.64 2483.55 2115.31C2494.31 2115.29 2505.18 2115.27 2515.94 2115.25C2529.58 2115.53 2513.08 2116.02 2540.18 2115.62C2538.41 2116.02 2536.64 2116.43 2534.78 2116.83C2546.57 2116.61 2557.93 2116.39 2570 2116.18C2588.93 2117.58 2658.05 2117.89 2653.14 2119.53C2651.47 2120.09 2602.47 2120.66 2628.36 2121.26C2649.4 2121.38 2635.16 2120.71 2643.74 2120.68C2705.74 2120.43 2702.14 2121.37 2727.47 2121.12C2731.46 2120.72 2735.66 2120.31 2739.74 2119.9C2749.3 2120.02 2758.88 2120.14 2768.53 2120.26C2770.75 2119.99 2773.07 2119.72 2775.3 2119.45C2766.3 2119.43 2756.16 2119.41 2747.9 2119.4C2759.42 2118.35 2865.2 2117.88 2824.86 2118.77C2808.43 2119.13 2778.35 2118.98 2797.36 2120.21C2825.67 2120.04 2857.78 2119.85 2887.57 2119.68C2888.5 2119.94 2889.36 2120.21 2890.29 2120.47C2930.44 2120.3 2893.93 2119.24 2894 2118.67C2903.18 2118.66 2912.47 2118.64 2921.65 2118.63C2925.54 2118.88 2929.24 2119.15 2933.32 2119.4C2933.69 2118.99 2938.84 2118.04 2966.21 2118.39C2983.81 2118.62 2956.09 2119.66 2989.65 2119.51C2987.15 2118.88 2975.02 2118.1 3012.4 2117.89C3016.12 2118.56 3021.25 2119.17 3024.13 2119.87C3070.61 2119.23 3091.77 2120.26 3146.34 2119.51C3180.96 2119.04 3228.38 2117.37 3250.75 2119.95C3276.07 2120.01 3268.03 2119.37 3275.52 2119.23C3310.89 2118.55 3337.19 2119.77 3343.78 2119.84C3385.8 2120.3 3404.64 2119.88 3438.89 2120.45C3437.03 2119.98 3436.02 2119.53 3434.53 2119.06C3403.16 2119.77 3387.28 2119.74 3343.28 2119.59C3358.04 2119.49 3372.79 2119.39 3387.55 2119.3C3385.14 2118.91 3382.75 2118.52 3380.43 2118.14C3244.36 2119.66 3276.1 2117.26 3390.17 2116.73C3400.01 2117.45 3410.2 2118.16 3419.94 2118.88C3485.84 2117.79 3516.84 2118.73 3591.37 2118.96C3600.23 2118.99 3632.49 2118.57 3646.36 2118.55C3646.13 2118.55 3645.9 2118.55 3645.67 2118.54C3654.3 2117.87 3642.61 2117.56 3641.22 2116.95C3648.74 2116.88 3656.26 2116.8 3663.77 2116.73C3680.56 2117.19 3674.66 2117.57 3707.69 2117.46C3703.24 2117 3698.84 2116.54 3694.39 2116.08C3730.58 2116.06 3754.27 2116.56 3787.96 2116.35C3782.3 2116.52 3776.71 2116.69 3771.05 2116.87C3844.37 2117.31 3786.02 2120.01 3841.43 2118.66C3844.95 2118.9 3848.39 2119.14 3851.91 2119.37C3829.09 2119.43 3806.25 2119.49 3783.51 2119.54C3783.05 2119.88 3782.55 2120.21 3782.18 2120.54C3806.59 2120.44 3831.11 2120.34 3855.52 2120.24C3837.7 2120.46 3819.78 2120.69 3801.96 2120.91C3830.26 2121.07 3858.58 2121.23 3886.88 2121.39C3856.82 2120.16 3895.79 2120.01 3888.46 2118.8C3938.58 2119.81 3977.95 2121.14 4055.63 2120.29C4071.03 2120.12 4062.67 2119.27 4106.38 2120.3C4095.8 2118.96 4150.56 2118.32 4143.52 2117.04C4128.3 2117.1 4112.52 2117.14 4097.77 2117.22C4114.57 2117.66 4117.35 2118.89 4091.84 2119.25C4059.26 2119.71 4011.75 2118.86 4013.69 2120.22C4000.7 2120.16 3988.62 2120.12 3976 2120.07C3981.2 2119.73 3986.29 2119.39 3991.39 2119.05C3955.48 2119.58 3932.92 2119.41 3915.67 2118.56C3958.44 2118.37 4001.13 2118.17 4043.91 2117.98C4037.61 2117.92 4031.22 2117.86 4024.92 2117.81C4057.31 2116.94 4023.9 2116.12 4084.32 2115.93C4083.95 2116.33 4083.65 2116.73 4083.28 2117.13C4105.28 2116.06 4165.5 2116.07 4146.29 2114.85C4164.48 2115.22 4168.19 2115.46 4178.49 2114.8C4226.47 2115.73 4257.29 2116.9 4240.21 2118.3C4258.03 2118.08 4275.85 2117.85 4293.58 2117.63C4283.28 2117.24 4272.97 2116.86 4262.67 2116.48C4293.67 2116.5 4324.89 2116.53 4355.8 2116.55C4358.77 2117.68 4296.13 2116.89 4314.2 2117.91C4317.82 2118.11 4334.5 2117.67 4338.88 2117.79C4385.1 2119.03 4312.54 2118.13 4326.17 2119.08C4374.57 2119.29 4361.73 2120.13 4382.76 2120.15L4383.78 2120.15L4383.78 2119.14C4383.79 2110.25 4383.65 2095.3 4383.25 2067.12C4383.58 2064.61 4383.91 2061.92 4384.24 2059.6C4384.26 2026.67 4383.52 2029.34 4383.38 2001.04C4383.29 1983.32 4384.59 1961.07 4383.7 1941.49C4383.54 1938 4381.96 1970.93 4382.03 1901.73C4382.08 1848.02 4383.2 1870.37 4383.6 1841.34C4383.99 1812.29 4382.44 1745.83 4384.2 1726.25C4383.97 1741.47 4383.84 1760.85 4383.65 1777.74C4383.99 1784.6 4384.33 1791.29 4384.67 1798.06C4384.23 1759.46 4384.75 1719.55 4383.94 1693.56C4385.19 1642.05 4384.03 1584.44 4382.61 1600.03C4382.82 1616.99 4383.43 1598.54 4383.04 1622.09C4382.71 1624.5 4382.39 1627.05 4382.06 1629.46C4382.1 1589.37 4382.09 1561.52 4383.09 1579.8C4383.11 1573.59 4383.14 1567.43 4383.16 1561.21C4382.44 1560.09 4381.71 1559.11 4380.98 1557.99C4380.9 1550.57 4380.82 1543.11 4380.74 1535.69C4380.9 1527.43 4381.06 1519.16 4381.22 1510.81C4382.37 1522.04 4382.41 1541.17 4383.05 1477.87C4382.65 1477.69 4382.26 1477.41 4381.86 1477.23C4382.36 1424.23 4383.32 1422.84 4383.29 1356.3C4384.67 1407.35 4382.22 1435.27 4384.99 1435.09C4384.81 1447.9 4384.62 1460.81 4384.44 1473.62C4384.84 1475.57 4385.24 1477.5 4385.64 1479.35C4385.43 1410.59 4382.8 1296.35 4384.54 1250.31C4384.33 1244.74 4384.15 1239.16 4383.92 1233.5C4384.97 1188.39 4382.6 1168.91 4383.97 1123.15C4384.11 1118.43 4386.33 1128.31 4386.25 1068.75C4385.97 1070.23 4385.48 1071.01 4385.11 1072.21C4385.29 1059.32 4385.48 1046.49 4385.66 1033.68C4385.39 1031.36 4385.12 1028.93 4384.86 1026.61C4384.75 1048.61 4384.65 1070.54 4384.54 1092.54C4384.45 1074.26 4384.36 1055.87 4384.27 1037.59C4383.83 1061.44 4383.83 1072.19 4383.13 1057.82C4383.09 1037.12 4383.04 1016.4 4383 995.699C4382.82 993.568 4382.64 991.451 4382.46 989.319C4381.93 999.342 4381.4 1009.47 4380.86 1019.49C4381.3 965.568 4381.32 918.688 4382.37 877.296C4382.55 870.243 4383.25 895.187 4382.62 847.126C4382.99 846.383 4383.29 845.092 4383.63 844.257C4382.59 785.415 4382.9 766.084 4383.65 704.735C4382.95 744.459 4383.4 709.016 4383.03 698.899C4382.77 691.967 4382.81 719.022 4382.54 715.962C4382.28 712.9 4381.2 677.744 4381.07 707.801C4383.28 781.494 4380.63 801.57 4381.7 896.238C4381.41 881.667 4381.13 866.99 4380.84 852.418C4380.65 859.281 4380.47 865.424 4380.27 872.844C4380.7 820.044 4380.42 845.724 4380.08 824.029C4379.74 802.311 4379.45 762.84 4379.35 736.388C4379.32 728.056 4379.82 736.844 4379.87 718.039C4379.9 705.233 4379.16 670.232 4380.03 662.151C4380.59 656.862 4382.15 713.09 4382.14 635.345C4382.7 620.711 4382.53 657.987 4382.59 658.788C4383.25 665.564 4383.75 617.768 4383.24 595.679C4383.2 593.89 4382.69 611.334 4382.49 592.365C4382 547.351 4382.59 521.355 4383.39 492.212C4382.46 489.056 4381.34 451.176 4381.69 404.027C4381.42 401.615 4381.15 399.317 4380.88 396.905C4381.02 404.226 4381.16 411.544 4381.3 418.865C4381.14 426.847 4381.01 435.303 4380.82 443.1C4380.59 395.684 4379.3 388.978 4378.83 366.241C4377.22 288.433 4380.62 335.59 4381.21 349.623C4380.97 359.74 4380.71 369.522 4380.46 379.545C4380.78 378.432 4381.11 377.302 4381.44 376.281C4381.43 259.806 4383.55 358.544 4384.15 299.423C4382.55 284.203 4382.4 240.782 4383.41 185.47C4383.4 179.345 4383.4 173.197 4383.39 167.072C4383.16 166.053 4382.8 166.068 4382.65 164.401C4382.38 97.7619 4384.84 85.8911 4385.07 79.5797C4386.11 51.5537 4384.68 29.7282 4384.66 21.466C4384.66 17.1765 4384.66 13.2622 4384.67 9.63349L4384.67 7.7189L4382.76 7.72174C4356.95 7.63853 4345.59 7.17944 4316.55 7.41881C4280.92 7.71382 4305.28 8.20153 4294.44 8.63809C4285.75 8.98477 4257.63 9.04652 4246.02 9.40587C4250.63 9.11196 4255.77 8.82375 4260.36 8.52874C4223.43 8.12807 4193.25 7.73753 4151.31 7.63985C4103.98 9.79035 4063.71 6.16273 4080.04 9.10487C4119.76 9.30624 4141.97 9.64151 4163.23 10.3912C4137.15 10.4868 4111.06 10.58 4084.98 10.6757C4077.38 10.3528 4071.98 10.0381 4062.98 9.70922C4043.49 10.3949 3998.31 10.1007 3980.58 10.3018C3897.51 11.2448 3923.21 12.4145 3847.39 10.4488C3902.04 10.2572 3901.95 9.30253 3956.15 9.43409C3944.45 8.75223 3916.91 8.89351 3934.73 8.07607C3882.3 8.27741 3899.25 9.00722 3878.84 9.65513C3861.24 10.2137 3825.8 10.245 3827.8 10.9708C3824.18 10.5717 3821.37 10.1854 3817.76 9.78682C3783.8 9.79081 3749.84 9.79107 3715.88 9.79505C3730.35 9.37842 3744.82 8.96102 3759.3 8.54638C3748.36 8.38901 3737.4 8.23225 3726.46 8.07489C3642.93 9.37082 3498.89 6.99571 3521.9 10.2513C3481.62 10.3549 3476.58 9.9466 3454.69 9.33062C3452.27 9.57777 3449.93 9.78335 3447.51 10.0584C3421.53 9.7997 3401.59 10.7276 3378.67 10.4864C3355.75 10.2471 3350.06 9.37059 3346.72 10.8438C3331.87 10.4212 3317.11 10.0702 3302.35 9.67747C3293.45 10.0122 3284.56 10.343 3275.74 10.6757C3261.82 10.5003 3247.87 10.3256 3233.95 10.1501C3226.51 10.8534 3171.78 10.5503 3147.65 11.0226C3124.74 10.2645 3125.37 7.87763 3071.48 8.30534C3072.87 8.89733 3074.24 9.4876 3075.64 10.0796C3063.29 9.956 3050.93 9.83281 3038.49 9.70922C3037.75 9.516 3037.11 9.32278 3036.37 9.12956C3042.68 9.18936 3048.9 9.24884 3055.21 9.31063C3049.73 8.98365 3044.37 8.65819 3038.99 8.33121C3020.15 8.81561 3001.29 9.30007 2982.36 9.78447C3007.87 10.1512 3033.4 10.5182 3058.92 10.885C3026.9 11.3196 3004.61 10.8861 2976.77 11.3706C2952.55 10.5533 2961.49 10.0823 2971.33 9.19541C2962.33 9.27114 2953.22 9.34425 2944.22 9.41998C2950.16 8.53291 2934.94 8.00436 2987.55 8.07607C2983.93 7.82306 2980.24 7.58183 2976.72 7.31887C2968.09 7.35873 2962.49 7.14487 2953.03 7.24244C2927.23 7.50961 2907.44 9.06769 2909.21 9.61398C2910.16 9.90014 2935.6 9.35289 2934.58 9.75743C2932.06 10.7439 2873.7 10.301 2957.88 11.2918C2929.94 11.9198 2923.7 11.4462 2892.89 11.2648C2895.3 11.5935 2897.64 11.9202 2899.96 12.2489C2885.67 12.0974 2871.37 11.9465 2857.08 11.795C2876.94 10.1064 2771.6 9.47216 2866.43 7.99494C2838.4 7.91919 2810.48 7.84304 2782.54 7.76331C2788.3 7.58989 2794.05 7.41821 2799.81 7.24479C2812.43 7.33649 2824.97 7.42669 2837.59 7.5164C2822.75 7.19949 2807.87 6.88445 2793.03 6.56754C2757.95 6.96032 2744.2 7.56439 2728.14 8.31005C2768.97 8.85418 2755.63 8.11091 2787.44 7.96319C2786.33 8.43541 2787.8 8.86976 2785.02 9.36589C2768.58 8.38777 2714.96 9.09936 2702.52 9.1472C2664.68 9.29249 2694.35 8.33143 2669.04 8.31122C2643.7 8.29128 2613.82 8.8633 2593.12 7.91028C2593.49 8.44444 2595.14 8.9971 2596.63 9.48347C2557.18 9.65892 2565.05 9.02789 2560.97 8.94614C2495.82 7.60239 2460.46 8.73685 2385.94 8.87442C2395.4 9.03987 2404.97 9.18924 2414.52 9.34473C2358.3 10.4789 2396.17 10.1316 2444.99 10.5064C2399.23 10.3928 2373.03 11.3586 2340.73 11.6457C2308.44 11.9323 2253.05 11.4363 2232.81 11.0496C2279.13 10.4275 2329.08 10.8378 2380.5 10.6663C2374.65 10.1221 2368.97 9.66162 2362.94 9.06372C2331.67 10.2058 2313.54 9.44216 2303.24 9.29064C2272.99 8.84625 2273.94 9.8265 2255.66 8.77213C2256.4 9.13484 2256.95 9.43981 2257.69 9.77859C2195.23 9.62707 2127.86 8.98583 2087.21 10.3253C2083.5 9.45413 2080.69 8.61481 2076.43 7.72568C2049.98 8.38148 2027.33 7.70992 2005.06 7.86325C1982.88 8.01676 1991.32 8.72082 1965.24 8.992C1960.42 9.04184 1950.37 8.60117 1938.49 8.92615C1926.49 9.25285 1882.25 11.682 1876.96 9.5599C1854.59 9.54992 1833.43 9.47232 1811.53 9.43644C1832.87 9.31682 1854.22 9.20097 1875.48 9.08136C1857.29 8.56703 1839.21 8.05424 1821.02 7.53991C1818.7 7.99848 1816.37 8.46534 1814.15 8.91792C1765.14 9.47617 1729.58 8.72642 1680.11 8.90381C1671.86 8.93372 1691.34 9.84035 1654.69 9.60928C1618.03 9.37802 1590.83 7.68583 1528.38 8.33944C1525.22 8.37333 1506.73 9.66932 1484.36 8.77213C1479.27 8.56878 1500.69 8.2679 1489.01 8.00082C1477.31 7.73365 1425.13 7.51396 1421.05 6.87795C1421.61 7.10318 1424.86 7.33656 1426.44 7.56578C1417.53 7.67341 1408.54 7.78113 1399.54 7.88677C1398.7 7.49006 1397.8 7.09277 1396.96 6.69806C1345.73 7.62113 1319.26 9.12691 1243.35 8.62868C1264.69 9.20483 1286.04 9.78328 1307.3 10.3594C1313.14 9.95469 1319 9.54723 1324.76 9.1425C1359.74 9.30396 1394.82 9.46427 1429.81 9.62574C1435.56 9.16518 1441.21 8.70594 1446.97 8.24538C1456.25 8.30518 1465.43 8.36312 1474.71 8.42292C1472.39 8.75586 1470.05 9.08704 1467.64 9.41998C1486.01 9.33825 1504.41 9.25479 1522.69 9.17307C1485.47 11.1383 1418.76 9.0059 1423.57 10.6498C1415.32 10.3948 1407.05 10.1379 1398.79 9.88088C1395.17 10.678 1378.39 10.4486 1348.79 10.323C1355.57 10.7157 1363.05 11.1032 1369.27 11.4999C1340.5 10.9457 1289.46 10.9995 1259.67 10.7862C1246.58 10.6925 1259.65 10.1146 1255.76 10.0467C1235.81 9.69178 1197.67 10.7002 1189.68 10.6204C1141.98 10.1459 1110.98 8.23403 1058.92 9.49405C1112.65 9.80508 1083.42 9.67372 1102.54 10.3735C1108.52 10.5929 1177.95 11.0507 1091.01 10.8474C1080.82 10.8219 923.084 9.501 974.935 8.48876C949.412 8.81175 929.429 9.18522 906.04 9.52815C848.867 6.86048 868.654 9.36656 885.267 10.7463C875.893 10.7522 866.976 10.7662 857.323 10.7662C877.835 9.31677 773.335 9.22677 737.881 9.95848C726.002 10.2017 759.218 10.6657 731.748 10.885C718.667 10.7833 703.827 10.6517 690.005 10.5381C710.051 11.4552 670.71 11.8086 671.26 12.7415C646.111 11.9102 626.873 10.1481 640.695 9.19305C619.909 9.57977 599.015 9.96601 578.229 10.3547C587.881 10.576 597.659 10.7954 607.311 11.0167C539.372 10.4305 452.017 11.7643 437.816 9.80446C428.814 9.81841 419.715 9.83048 410.713 9.84443C407.929 10.1754 405.238 10.507 402.453 10.838C361.719 10.5509 321.075 10.262 280.34 9.97494C316.611 9.76955 325.245 9.29847 363.282 9.681C348.624 9.30036 333.693 8.91761 319.314 8.53697C262.05 9.56175 254.238 10.2353 168.02 9.93027C164.122 9.91631 98.978 9.05692 96.7505 8.97318C86.5454 8.59041 102.036 8.03434 97.4924 7.84091C84.8699 7.2986 8.16909 5.93692 9.65409 5.73157C28.4024 3.21144 286.464 3.17804 356.259 3.04844C1080.19 1.70472 1788.17 3.50245 2507.56 3.19542C2514.95 3.19066 2511.72 2.81864 2514.88 2.80271C2534.45 2.70927 2553.68 3.28907 2560.92 3.31299C2576.39 3.36229 2567.87 2.8266 2579.17 2.82622C2695.93 2.8322 2806.11 3.14721 2922.96 3.0555C2930.57 3.04952 2922.8 3.47812 2936.16 3.40235C2943.06 3.36087 2964.66 2.70331 2980.23 2.69336C3034.62 2.65948 3080.3 2.87029 3137.66 2.86032C3169.03 2.85437 3216.09 2.91026 3251.16 2.9003C3266.66 2.89606 3282.79 2.59524 3298.1 2.58519C3319.82 2.57123 3315.38 3.18105 3318.72 3.21893C3333.39 3.38438 3335.42 2.71506 3349.34 2.73098C3375.23 2.76288 3376.63 3.20976 3409.48 3.1719C3432.96 3.14399 3486.7 2.79116 3516.31 2.68748C3585.55 3.20581 3672.79 3.00003 3737.39 2.82857C3775.63 2.72693 3779.17 3.35261 3794.76 3.35062C3849.7 3.3385 3891.39 2.53938 3942.99 2.51346C4011.47 2.4797 4072.16 3.0081 4138.5 3.04609C4149.26 3.05207 4146.79 2.47879 4157.34 2.46408C4196.42 2.41025 4246.38 2.30591 4281.19 2.38766C4319.97 2.47749 4334.28 3.30961 4372.24 3.14015C4376.46 3.1211 4379.54 3.00458 4382.76 2.86208L4389.52 2.85203L4389.53 9.63349C4389.77 14.9171 4390.07 20.564 4390.13 32.149C4390.28 61.9373 4389.63 94.6004 4389.56 115.388C4389.47 143.881 4390.21 119.102 4390.11 157.526C4390.1 159.105 4389.57 164.854 4389.6 173.106C4389.67 197.144 4390.09 194.758 4390.05 229.934C4390.04 233.309 4389.54 279.948 4389.54 284.585C4389.53 311.87 4389.35 366.805 4389.46 382.958C4389.84 440.687 4390.64 395.238 4388.91 444.336C4389.33 465.955 4389.76 487.395 4390.17 510.314C4389.79 495.018 4389.23 557.092 4389.27 561.454C4389.56 597.536 4390.23 576.043 4390.12 621.793C4388.56 561.372 4389.92 680.818 4389.96 707.455C4390.15 835.715 4389.76 952.303 4389.77 1081.21C4389.78 1124.37 4390.11 1182.2 4390.1 1227.86C4390.1 1238.5 4389.73 1230.46 4389.72 1239.83C4389.72 1249.17 4390.13 1238.8 4390.11 1249.47C4389.97 1315.83 4389.18 1367.82 4390.16 1428.61C4390.02 1431.57 4389.91 1431.47 4389.75 1436.37C4390.63 1486.12 4389.45 1581.93 4389.29 1617.94C4389.04 1674.26 4389.63 1688.65 4389.51 1729.56C4389.35 1783.67 4388.2 1864.91 4390.1 1828.63C4390.16 1865.75 4390.18 1901.48 4390 1938.97C4389.98 1943.14 4389.5 1940.27 4389.49 1941.94C4389.42 1952.52 4389.85 1955.96 4389.87 1963.11C4389.93 1982.48 4389.41 1950.86 4389.55 1978.49C4389.63 1993.06 4390.01 2001.33 4390.02 2041.8C4390.02 2067.36 4390.02 2093.16 4390.02 2119.14L4390.03 2126.39L4382.76 2126.4C4160.85 2126.41 3925.19 2126.29 3701.36 2126.23C3684.19 2126.23 3695.49 2126.7 3673.96 2126.67C3599.16 2126.57 3465.26 2125.78 3400.75 2125.88C3336.25 2125.99 3350.81 2126.68 3310.44 2126.96C3302.65 2127.02 3309.04 2126.63 3301.98 2126.62C3254.56 2126.59 3198.02 2125.98 3159.59 2125.89C3134.18 2125.82 3136.22 2126.44 3118.59 2126.48C3092.33 2126.55 3065.29 2125.93 3051.28 2125.91C2985.39 2125.82 2940.1 2126.32 2878.57 2126.06C2880.98 2126.2 2882.57 2126.32 2884.6 2126.46C2811.75 2126.44 2739 2126.41 2666.15 2126.39C2669.58 2126.52 2672.9 2126.64 2676.33 2126.77C2590.86 2126.7 2600.61 2125.36 2608.13 2128.19C2601.91 2128.29 2595.32 2128.4 2589.39 2128.49C2591.8 2127.04 2540.09 2125.97 2474.3 2125.6C2469.47 2125.57 2437.09 2126.99 2440.62 2125.31C2432.17 2125.72 2427.14 2126.01 2419.99 2126.37C2406.07 2125.86 2391.97 2125.36 2378.05 2124.85C2370.53 2124.93 2362.91 2125 2355.4 2125.08C2354.28 2125.4 2355.14 2125.75 2352.73 2126.07C2317.83 2126.12 2246.27 2125.71 2218.7 2125.75C2150.2 2125.86 2080.47 2126.75 2027.19 2125.79C2001.24 2125.89 2027.01 2126.53 1988.42 2126.45C1984.06 2126.12 1979.95 2125.81 1975.41 2125.47C1943.87 2126.93 1937.28 2126.05 1894.05 2125.74C1864.82 2125.53 1845.67 2125.89 1817.83 2125.82C1810.78 2125.8 1811.78 2125.37 1806.95 2125.39C1790.79 2125.43 1744.67 2126.02 1733.26 2126.04C1629.88 2126.19 1541.06 2126.13 1442.59 2125.97C1432.01 2125.95 1445.73 2126.38 1434.78 2126.36C1417.16 2126.33 1427.53 2125.68 1417.32 2125.65C1388.85 2125.56 1388.63 2126.25 1348.92 2126.28C1218.15 2126.4 1067.8 2125.89 931.191 2125.84C926.922 2125.84 927.177 2126.24 922.536 2126.25C892.288 2126.27 861.668 2125.72 834.203 2125.73C788.633 2125.74 754.384 2126.3 709.37 2126.3C621.386 2126.3 542.775 2126.01 452.285 2125.99C378.222 2125.98 313.898 2126.03 232.689 2126.03C158.617 2126.03 84.2277 2126.08 9.63281 2126.16L2.61798 2126.17L2.60753 2119.14C2.30156 1836.51 1.61549 1550.92 2.15182 1268.35C2.16975 1259.26 2.52463 1262.96 2.50926 1260.19C2.35574 1233.83 1.87692 1231.48 2.87963 1222.11C2.68201 1188.53 1.92869 1177.94 1.98251 1137.39C2.01073 1115.77 3.17832 1131.91 2.57628 1095.35C2.03203 1062.33 1.39214 1098.76 2.046 1000.58C2.06398 997.985 2.77567 985.191 2.59039 964.776C2.40696 944.264 1.89735 968.007 1.74383 918.631C1.38499 802.714 2.00018 655.99 1.81085 521.232C1.79888 512.787 1.4184 431.447 1.24295 415.391C0.902027 384.319 0.373152 390.81 0.243536 350.452C0.143847 319.267 0.742938 293.538 0.623312 256.877C0.608772 252.606 -0.00746346 245.454 0.0742235 217.903Z" fill="black"/>
<path d="M2464.57 135.208H2528.53V145.348H2502.01V226.208H2491.09V145.348H2464.57V135.208ZM2537.67 170.568C2537.67 158.782 2540.48 149.638 2546.12 143.138C2551.75 136.638 2559.59 133.388 2569.65 133.388C2579.7 133.388 2587.54 136.638 2593.18 143.138C2598.81 149.638 2601.63 158.782 2601.63 170.568V190.848C2601.63 202.982 2598.81 212.212 2593.18 218.538C2587.54 224.865 2579.7 228.028 2569.65 228.028C2559.59 228.028 2551.75 224.865 2546.12 218.538C2540.48 212.212 2537.67 202.982 2537.67 190.848V170.568ZM2569.65 217.888C2576.67 217.888 2581.91 215.505 2585.38 210.738C2588.93 205.885 2590.71 198.995 2590.71 190.068V171.348C2590.71 163.028 2588.93 156.312 2585.38 151.198C2581.91 146.085 2576.67 143.528 2569.65 143.528C2562.63 143.528 2557.34 146.085 2553.79 151.198C2550.32 156.312 2548.59 163.028 2548.59 171.348V190.068C2548.59 198.995 2550.32 205.885 2553.79 210.738C2557.34 215.505 2562.63 217.888 2569.65 217.888ZM2610.77 135.208H2674.73V145.348H2648.21V226.208H2637.29V145.348H2610.77V135.208ZM2735.35 203.588H2696.35L2689.72 226.208H2678.02L2705.58 135.208H2726.12L2753.68 226.208H2741.98L2735.35 203.588ZM2715.07 139.888L2699.34 193.448H2732.36L2716.63 139.888H2715.07ZM2760.48 135.208H2771.4V216.068H2818.98V226.208H2760.48V135.208ZM2946.85 203.588H2907.85L2901.22 226.208H2889.52L2917.08 135.208H2937.62L2965.18 226.208H2953.48L2946.85 203.588ZM2926.57 139.888L2910.84 193.448H2943.86L2928.13 139.888H2926.57ZM3021.89 161.468C3021.89 158.522 3021.29 155.922 3020.07 153.668C3018.95 151.415 3017.39 149.552 3015.39 148.078C3013.4 146.605 3011.1 145.478 3008.5 144.698C3005.9 143.918 3003.17 143.528 3000.31 143.528C2997.8 143.528 2995.42 143.875 2993.16 144.568C2990.91 145.175 2988.87 146.085 2987.05 147.298C2985.32 148.512 2983.93 150.028 2982.89 151.848C2981.85 153.582 2981.33 155.618 2981.33 157.958V158.738C2981.33 161.252 2981.85 163.418 2982.89 165.238C2983.93 166.972 2985.45 168.488 2987.44 169.788C2989.52 171.002 2992.08 172.042 2995.11 172.908C2998.15 173.688 3001.7 174.382 3005.77 174.988C3015.31 176.462 3022.33 179.278 3026.83 183.438C3031.34 187.512 3033.59 193.015 3033.59 199.948V201.508C3033.59 205.408 3032.9 209.005 3031.51 212.298C3030.21 215.505 3028.22 218.278 3025.53 220.618C3022.93 222.958 3019.68 224.778 3015.78 226.078C3011.88 227.378 3007.38 228.028 3002.26 228.028C2996.46 228.028 2991.3 227.205 2986.79 225.558C2982.37 223.825 2978.65 221.485 2975.61 218.538C2972.67 215.505 2970.41 211.995 2968.85 208.008C2967.29 203.935 2966.51 199.515 2966.51 194.748V190.848H2977.43V193.968C2977.43 201.942 2979.6 207.922 2983.93 211.908C2988.35 215.895 2994.46 217.888 3002.26 217.888C3009.02 217.888 3014.09 216.415 3017.47 213.468C3020.94 210.435 3022.67 206.448 3022.67 201.508V200.728C3022.67 195.962 3020.9 192.322 3017.34 189.808C3013.88 187.295 3008.2 185.475 3000.31 184.348C2995.72 183.742 2991.56 182.832 2987.83 181.618C2984.19 180.318 2981.07 178.672 2978.47 176.678C2975.87 174.598 2973.88 172.128 2972.49 169.268C2971.11 166.408 2970.41 163.028 2970.41 159.128V157.568C2970.41 154.015 2971.15 150.765 2972.62 147.818C2974.1 144.872 2976.13 142.315 2978.73 140.148C2981.42 137.982 2984.58 136.335 2988.22 135.208C2991.95 133.995 2996.02 133.388 3000.44 133.388C3005.56 133.388 3010.11 134.125 3014.09 135.598C3018.17 137.072 3021.59 139.065 3024.36 141.578C3027.14 144.005 3029.22 146.908 3030.6 150.288C3032.08 153.582 3032.81 157.048 3032.81 160.688V166.148H3021.89V161.468ZM3338.38 135.208H3393.5V145.348H3349.3V175.508H3392.72V185.648H3349.3V216.068H3394.28V226.208H3338.38V135.208ZM3408.75 135.208H3438.65C3449.92 135.208 3458.15 137.895 3463.35 143.268C3468.55 148.642 3471.15 157.222 3471.15 169.008V192.408C3471.15 204.195 3468.55 212.775 3463.35 218.148C3458.15 223.522 3449.92 226.208 3438.65 226.208H3408.75V215.938H3416.55V145.348H3408.75V135.208ZM3437.09 216.068C3441.08 216.068 3444.5 215.678 3447.36 214.898C3450.31 214.118 3452.74 212.818 3454.64 210.998C3456.55 209.092 3457.94 206.578 3458.8 203.458C3459.76 200.338 3460.23 196.395 3460.23 191.628V169.788C3460.23 165.022 3459.76 161.078 3458.8 157.958C3457.94 154.838 3456.55 152.368 3454.64 150.548C3452.74 148.642 3450.31 147.298 3447.36 146.518C3444.5 145.738 3441.08 145.348 3437.09 145.348H3427.47V216.068H3437.09ZM3847.35 135.208H3858.27V175.508H3897.01V135.208H3907.93V226.208H3897.01V185.648H3858.27V226.208H3847.35V135.208Z" fill="black"/>
<path d="M105.719 1740.31H143.026C150.401 1740.31 156.346 1742.4 160.861 1746.58C165.376 1750.72 167.634 1756.55 167.634 1764.07C167.634 1770.54 165.621 1776.19 161.595 1781C157.568 1785.78 151.379 1788.17 143.026 1788.17H116.95V1823.22H105.719V1740.31ZM156.289 1764.13C156.289 1758.03 154.032 1753.89 149.516 1751.71C147.033 1750.55 143.628 1749.96 139.301 1749.96H116.95V1778.69H139.301C144.343 1778.69 148.425 1777.62 151.548 1775.47C154.709 1773.33 156.289 1769.55 156.289 1764.13ZM215.721 1789.24L203.134 1752.62L189.758 1789.24H215.721ZM197.265 1740.31H209.964L240.046 1823.22H227.742L219.333 1798.39H186.541L177.567 1823.22H166.053L197.265 1740.31ZM288.81 1778.3C294.078 1778.3 298.236 1777.24 301.284 1775.13C304.369 1773.03 305.912 1769.23 305.912 1763.73C305.912 1757.83 303.767 1753.8 299.478 1751.66C297.182 1750.53 294.116 1749.96 290.278 1749.96H262.848V1778.3H288.81ZM251.616 1740.31H289.996C296.317 1740.31 301.528 1741.23 305.63 1743.08C313.418 1746.61 317.313 1753.14 317.313 1762.66C317.313 1767.63 316.278 1771.69 314.209 1774.85C312.177 1778.01 309.317 1780.55 305.63 1782.47C308.866 1783.79 311.292 1785.52 312.91 1787.66C314.566 1789.81 315.488 1793.29 315.676 1798.11L316.071 1809.22C316.184 1812.39 316.447 1814.74 316.861 1816.28C317.538 1818.91 318.743 1820.61 320.473 1821.36V1823.22H306.702C306.326 1822.51 306.025 1821.59 305.799 1820.46C305.573 1819.33 305.385 1817.15 305.235 1813.91L304.557 1800.08C304.294 1794.66 302.281 1791.03 298.518 1789.19C296.373 1788.17 293.006 1787.66 288.415 1787.66H262.848V1823.22H251.616V1740.31ZM334.866 1740.31H395.313V1750.47H345.815V1775.64H391.588V1785.24H345.815V1813.34H396.16V1823.22H334.866V1740.31ZM410.89 1740.31H424.154L466.032 1807.48V1740.31H476.7V1823.22H464.113L421.614 1756.11V1823.22H410.89V1740.31ZM554.756 1740.31V1750.19H526.818V1823.22H515.417V1750.19H487.48V1740.31H554.756ZM572.422 1796.47C572.685 1801.17 573.795 1804.99 575.752 1807.93C579.477 1813.42 586.043 1816.17 595.449 1816.17C599.664 1816.17 603.502 1815.56 606.963 1814.36C613.661 1812.03 617.01 1807.85 617.01 1801.83C617.01 1797.32 615.599 1794.1 612.777 1792.18C609.917 1790.3 605.439 1788.66 599.344 1787.27L588.112 1784.73C580.775 1783.07 575.583 1781.25 572.535 1779.26C567.267 1775.79 564.633 1770.62 564.633 1763.73C564.633 1756.28 567.211 1750.17 572.365 1745.39C577.52 1740.61 584.82 1738.22 594.264 1738.22C602.956 1738.22 610.331 1740.33 616.389 1744.54C622.484 1748.72 625.532 1755.42 625.532 1764.64H614.978C614.413 1760.2 613.209 1756.79 611.366 1754.42C607.942 1750.09 602.128 1747.93 593.926 1747.93C587.303 1747.93 582.544 1749.32 579.646 1752.11C576.749 1754.89 575.3 1758.13 575.3 1761.82C575.3 1765.88 576.994 1768.85 580.38 1770.73C582.6 1771.94 587.623 1773.44 595.449 1775.25L607.076 1777.9C612.683 1779.18 617.01 1780.93 620.057 1783.15C625.325 1787.02 627.959 1792.65 627.959 1800.02C627.959 1809.21 624.61 1815.77 617.913 1819.72C611.253 1823.67 603.502 1825.65 594.659 1825.65C584.35 1825.65 576.279 1823.01 570.447 1817.75C564.614 1812.52 561.755 1805.42 561.868 1796.47H572.422ZM698.34 1740.31H709.684V1823.22H698.34V1740.31ZM727.971 1740.31H741.234L783.113 1807.48V1740.31H793.78V1823.22H781.194L738.694 1756.11V1823.22H727.971V1740.31ZM846.439 1738.05C856.936 1738.05 865.083 1740.82 870.877 1746.35C876.672 1751.88 879.889 1758.17 880.528 1765.2H869.579C868.337 1759.86 865.854 1755.63 862.129 1752.5C858.442 1749.38 853.249 1747.82 846.551 1747.82C838.386 1747.82 831.783 1750.7 826.741 1756.45C821.737 1762.17 819.234 1770.96 819.234 1782.81C819.234 1792.52 821.492 1800.4 826.007 1806.46C830.56 1812.48 837.333 1815.49 846.326 1815.49C854.604 1815.49 860.906 1812.31 865.233 1805.95C867.528 1802.6 869.24 1798.2 870.369 1792.74H881.319C880.34 1801.47 877.104 1808.79 871.611 1814.7C865.026 1821.81 856.146 1825.37 844.971 1825.37C835.339 1825.37 827.249 1822.45 820.702 1816.62C812.085 1808.9 807.777 1797 807.777 1780.89C807.777 1768.66 811.013 1758.64 817.485 1750.81C824.483 1742.31 834.135 1738.05 846.439 1738.05ZM930.816 1738.05C945.453 1738.05 956.29 1742.76 963.326 1752.16C968.819 1759.5 971.566 1768.89 971.566 1780.33C971.566 1792.71 968.424 1803 962.141 1811.2C954.766 1820.83 944.249 1825.65 930.591 1825.65C917.835 1825.65 907.808 1821.43 900.508 1813.01C893.999 1804.88 890.744 1794.61 890.744 1782.19C890.744 1770.98 893.528 1761.38 899.097 1753.41C906.246 1743.17 916.819 1738.05 930.816 1738.05ZM931.945 1815.6C941.841 1815.6 948.99 1812.07 953.393 1804.99C957.832 1797.88 960.052 1789.72 960.052 1780.5C960.052 1770.75 957.494 1762.91 952.377 1756.96C947.297 1751.02 940.336 1748.04 931.494 1748.04C922.915 1748.04 915.916 1751 910.498 1756.9C905.08 1762.77 902.371 1771.45 902.371 1782.92C902.371 1792.1 904.685 1799.86 909.313 1806.18C913.979 1812.46 921.523 1815.6 931.945 1815.6ZM984.717 1740.31H1000.8L1024.62 1810.41L1048.27 1740.31H1064.18V1823.22H1053.52V1774.29C1053.52 1772.6 1053.55 1769.79 1053.63 1765.88C1053.71 1761.97 1053.74 1757.77 1053.74 1753.29L1030.09 1823.22H1018.98L995.158 1753.29V1755.83C995.158 1757.86 995.196 1760.97 995.271 1765.15C995.384 1769.28 995.44 1772.33 995.44 1774.29V1823.22H984.717V1740.31ZM1082.36 1740.31H1142.81V1750.47H1093.31V1775.64H1139.08V1785.24H1093.31V1813.34H1143.65V1823.22H1082.36V1740.31ZM1162.39 1763.56H1174.19V1775.87H1162.39V1763.56ZM1162.39 1810.92H1174.19V1823.22H1162.39V1810.92Z" fill="black"/>
<path d="M107.669 151.254H119.013V234.165H107.669V151.254ZM165.664 224.57C169.465 224.57 172.588 224.175 175.033 223.385C179.398 221.917 182.973 219.095 185.757 214.919C187.977 211.57 189.576 207.28 190.554 202.05C191.119 198.927 191.401 196.03 191.401 193.359C191.401 183.086 189.35 175.11 185.249 169.428C181.185 163.746 174.619 160.906 165.551 160.906H145.628V224.57H165.664ZM134.34 151.254H167.922C179.323 151.254 188.165 155.299 194.449 163.389C200.055 170.688 202.858 180.039 202.858 191.44C202.858 200.244 201.203 208.202 197.892 215.314C192.059 227.881 182.032 234.165 167.809 234.165H134.34V151.254ZM217.903 174.508H229.699V186.812H217.903V174.508ZM217.903 221.861H229.699V234.165H217.903V221.861Z" fill="black"/>
<path d="M143.677 505.107C148.945 505.107 153.103 504.053 156.151 501.946C159.236 499.839 160.779 496.039 160.779 490.545C160.779 484.638 158.634 480.612 154.345 478.467C152.049 477.338 148.983 476.774 145.145 476.774H117.715V505.107H143.677ZM106.483 467.122H144.863C151.184 467.122 156.395 468.044 160.497 469.888C168.285 473.425 172.18 479.953 172.18 489.473C172.18 494.439 171.145 498.503 169.075 501.664C167.044 504.824 164.184 507.364 160.497 509.283C163.733 510.6 166.159 512.331 167.777 514.476C169.433 516.62 170.355 520.101 170.543 524.917L170.938 536.036C171.051 539.196 171.314 541.548 171.728 543.091C172.405 545.725 173.61 547.418 175.34 548.17V550.033H161.569C161.193 549.318 160.892 548.396 160.666 547.267C160.44 546.139 160.252 543.956 160.102 540.72L159.424 526.892C159.161 521.474 157.148 517.843 153.385 516C151.24 514.984 147.873 514.476 143.282 514.476H117.715V550.033H106.483V467.122ZM227.748 516.056L215.162 479.426L201.786 516.056H227.748ZM209.292 467.122H221.991L252.074 550.033H239.77L231.361 525.199H198.569L189.595 550.033H178.081L209.292 467.122ZM293.758 464.865C304.256 464.865 312.402 467.63 318.197 473.161C323.992 478.693 327.209 484.976 327.848 492.012H316.899C315.657 486.669 313.174 482.436 309.449 479.313C305.761 476.19 300.569 474.629 293.871 474.629C285.706 474.629 279.103 477.507 274.061 483.264C269.056 488.984 266.554 497.769 266.554 509.622C266.554 519.329 268.812 527.212 273.327 533.27C277.88 539.29 284.653 542.301 293.646 542.301C301.923 542.301 308.226 539.121 312.553 532.762C314.848 529.413 316.56 525.011 317.689 519.555H328.638C327.66 528.285 324.424 535.603 318.931 541.51C312.346 548.622 303.466 552.178 292.291 552.178C282.659 552.178 274.569 549.262 268.022 543.429C259.405 535.716 255.097 523.807 255.097 507.703C255.097 495.474 258.333 485.447 264.805 477.62C271.803 469.117 281.454 464.865 293.758 464.865ZM339.958 467.122H400.405V477.282H350.907V502.454H396.68V512.049H350.907V540.156H401.252V550.033H339.958V467.122ZM416.522 490.376H428.318V502.68H416.522V490.376ZM416.522 537.729H428.318V550.033H416.522V537.729Z" fill="black"/>
<path d="M147.685 830.927L135.099 794.297L121.722 830.927H147.685ZM129.229 781.994H141.928L172.01 864.904H159.706L151.297 840.07H118.505L109.531 864.904H98.0174L129.229 781.994ZM214.598 779.849C222.387 779.849 229.122 781.354 234.803 784.364C243.044 788.691 248.086 796.273 249.929 807.109H238.811C237.456 801.051 234.653 796.649 230.401 793.902C226.149 791.118 220.787 789.726 214.316 789.726C206.64 789.726 200.168 792.604 194.9 798.361C189.67 804.118 187.055 812.697 187.055 824.098C187.055 833.956 189.219 841.989 193.546 848.198C197.873 854.369 204.928 857.454 214.711 857.454C222.198 857.454 228.388 855.29 233.279 850.963C238.209 846.599 240.73 839.562 240.842 829.855H214.88V820.542H251.284V864.904H244.06L241.35 854.237C237.55 858.413 234.183 861.311 231.248 862.929C226.319 865.713 220.054 867.105 212.453 867.105C202.633 867.105 194.185 863.926 187.111 857.567C179.398 849.59 175.541 838.641 175.541 824.719C175.541 810.834 179.304 799.791 186.829 791.588C193.978 783.762 203.235 779.849 214.598 779.849ZM266.329 781.994H326.776V792.153H277.278V817.325H323.051V826.92H277.278V855.027H327.622V864.904H266.329V781.994ZM342.893 805.247H354.689V817.551H342.893V805.247ZM342.893 852.6H354.689V864.904H342.893V852.6Z" fill="black"/>
<path d="M112.466 1162.02C112.729 1166.73 113.839 1170.54 115.796 1173.48C119.521 1178.97 126.087 1181.72 135.494 1181.72C139.708 1181.72 143.546 1181.12 147.007 1179.91C153.705 1177.58 157.054 1173.4 157.054 1167.38C157.054 1162.87 155.643 1159.65 152.821 1157.73C149.961 1155.85 145.484 1154.21 139.388 1152.82L128.156 1150.28C120.819 1148.63 115.627 1146.8 112.579 1144.81C107.311 1141.35 104.677 1136.17 104.677 1129.29C104.677 1121.84 107.255 1115.72 112.41 1110.94C117.565 1106.17 124.864 1103.78 134.308 1103.78C143 1103.78 150.375 1105.88 156.433 1110.1C162.528 1114.27 165.576 1120.97 165.576 1130.19H155.022C154.458 1125.75 153.253 1122.35 151.41 1119.97C147.986 1115.65 142.172 1113.48 133.97 1113.48C127.347 1113.48 122.588 1114.88 119.69 1117.66C116.793 1120.44 115.345 1123.68 115.345 1127.37C115.345 1131.43 117.038 1134.4 120.424 1136.29C122.644 1137.49 127.667 1138.99 135.494 1140.8L147.12 1143.45C152.727 1144.73 157.054 1146.48 160.102 1148.7C165.369 1152.58 168.003 1158.2 168.003 1165.58C168.003 1174.76 164.654 1181.33 157.957 1185.28C151.297 1189.23 143.546 1191.2 134.703 1191.2C124.394 1191.2 116.323 1188.57 110.491 1183.3C104.659 1178.07 101.799 1170.98 101.912 1162.02H112.466ZM179.831 1105.86H240.278V1116.02H190.78V1141.2H236.553V1150.79H190.78V1178.9H241.125V1188.78H179.831V1105.86ZM259.499 1188.78H245.954L275.641 1146.28L247.816 1105.86H261.87L283.035 1137.58L304.031 1105.86H317.407L289.582 1146.28L318.761 1188.78H304.821L282.47 1154.69L259.499 1188.78ZM330.025 1129.12H341.821V1141.42H330.025V1129.12ZM330.025 1176.47H341.821V1188.78H330.025V1176.47Z" fill="black"/>
<path d="M108.61 1509.33L159.462 1445.61H112.335V1435.74H173.911V1445.39L122.776 1508.77H173.911V1518.65H108.61V1509.33ZM187.964 1435.74H199.309V1518.65H187.964V1435.74ZM218.668 1435.74H255.975C263.35 1435.74 269.295 1437.82 273.81 1442C278.325 1446.14 280.583 1451.97 280.583 1459.5C280.583 1465.97 278.57 1471.61 274.544 1476.43C270.518 1481.21 264.328 1483.6 255.975 1483.6H229.899V1518.65H218.668V1435.74ZM269.238 1459.55C269.238 1453.46 266.981 1449.32 262.465 1447.14C259.982 1445.97 256.577 1445.39 252.25 1445.39H229.899V1474.12H252.25C257.292 1474.12 261.374 1473.04 264.497 1470.9C267.658 1468.75 269.238 1464.97 269.238 1459.55ZM582.932 1435.74H643.38V1445.9H593.882V1471.07H639.655V1480.66H593.882V1508.77H644.226V1518.65H582.932V1435.74ZM662.964 1458.99H674.76V1471.29H662.964V1458.99ZM662.964 1506.34H674.76V1518.65H662.964V1506.34Z" fill="black"/>
<path d="M2592.23 1810.7C2591.72 1805.76 2589.92 1802.2 2586.84 1800.01C2583.82 1797.76 2579.93 1796.64 2575.18 1796.64C2573.25 1796.64 2571.36 1796.83 2569.5 1797.22C2567.63 1797.6 2565.96 1798.25 2564.49 1799.15C2563.08 1800.04 2561.92 1801.26 2561.02 1802.81C2560.19 1804.28 2559.77 1806.15 2559.77 1808.39C2559.77 1810.51 2560.38 1812.25 2561.6 1813.59C2562.88 1814.88 2564.55 1815.94 2566.61 1816.77C2568.73 1817.61 2571.1 1818.31 2573.74 1818.89C2576.37 1819.41 2579.03 1819.98 2581.73 1820.63C2584.49 1821.27 2587.19 1822.04 2589.82 1822.94C2592.45 1823.77 2594.8 1824.93 2596.85 1826.41C2598.97 1827.88 2600.64 1829.74 2601.86 1831.99C2603.15 1834.24 2603.79 1837.07 2603.79 1840.47C2603.79 1844.13 2602.95 1847.28 2601.28 1849.91C2599.68 1852.48 2597.59 1854.6 2595.02 1856.27C2592.45 1857.87 2589.56 1859.03 2586.35 1859.73C2583.21 1860.5 2580.06 1860.89 2576.91 1860.89C2573.06 1860.89 2569.4 1860.41 2565.93 1859.44C2562.53 1858.48 2559.51 1857.04 2556.88 1855.11C2554.31 1853.12 2552.25 1850.61 2550.71 1847.6C2549.24 1844.51 2548.5 1840.89 2548.5 1836.71H2557.17C2557.17 1839.6 2557.71 1842.11 2558.8 1844.23C2559.96 1846.28 2561.44 1847.98 2563.24 1849.33C2565.1 1850.68 2567.25 1851.67 2569.69 1852.32C2572.13 1852.96 2574.63 1853.28 2577.2 1853.28C2579.26 1853.28 2581.31 1853.09 2583.37 1852.7C2585.49 1852.32 2587.38 1851.67 2589.05 1850.78C2590.72 1849.81 2592.07 1848.53 2593.1 1846.92C2594.12 1845.32 2594.64 1843.26 2594.64 1840.76C2594.64 1838.38 2594 1836.46 2592.71 1834.98C2591.49 1833.5 2589.82 1832.31 2587.7 1831.41C2585.65 1830.45 2583.3 1829.68 2580.67 1829.1C2578.04 1828.52 2575.34 1827.95 2572.58 1827.37C2569.88 1826.73 2567.22 1826.02 2564.58 1825.25C2561.95 1824.41 2559.58 1823.36 2557.46 1822.07C2555.4 1820.72 2553.73 1819.02 2552.45 1816.97C2551.23 1814.85 2550.62 1812.21 2550.62 1809.07C2550.62 1805.6 2551.32 1802.61 2552.74 1800.11C2554.15 1797.54 2556.01 1795.45 2558.32 1793.85C2560.7 1792.18 2563.36 1790.96 2566.32 1790.19C2569.34 1789.35 2572.42 1788.94 2575.57 1788.94C2579.1 1788.94 2582.37 1789.35 2585.39 1790.19C2588.41 1791.02 2591.04 1792.34 2593.29 1794.14C2595.6 1795.93 2597.4 1798.21 2598.68 1800.98C2600.03 1803.67 2600.77 1806.92 2600.9 1810.7H2592.23Z" fill="#292929"/>
</svg>
